0
SECTION
2
HEADER
9
$INSUNITS
70
4
9
$ACADVER
1
AC1014
9
$HANDSEED
5
FFFF
0
ENDSEC
0
SECTION
2
TABLES
0
TABLE
2
VPORT
5
8
100
AcDbSymbolTable
0
ENDTAB
0
TABLE
2
LTYPE
5
5
100
AcDbSymbolTable
0
LTYPE
5
14
100
AcDbSymbolTableRecord
100
AcDbLinetypeTableRecord
2
BYBLOCK
70
0
0
LTYPE
5
15
100
AcDbSymbolTableRecord
100
AcDbLinetypeTableRecord
2
BYLAYER
70
0
0
ENDTAB
0
TABLE
2
LAYER
5
2
100
AcDbSymbolTable
70
2
0
LAYER
5
50
100
AcDbSymbolTableRecord
100
AcDbLayerTableRecord
2
0
70
0
6
CONTINUOUS
0
ENDTAB
0
TABLE
2
STYLE
5
3
100
AcDbSymbolTable
70
1
0
STYLE
5
11
100
AcDbSymbolTableRecord
100
AcDbTextStyleTableRecord
2
STANDARD
70
0
0
ENDTAB
0
TABLE
2
VIEW
5
6
100
AcDbSymbolTable
70
0
0
ENDTAB
0
TABLE
2
UCS
5
7
100
AcDbSymbolTable
70
0
0
ENDTAB
0
TABLE
2
APPID
5
9
100
AcDbSymbolTable
70
2
0
APPID
5
12
100
AcDbSymbolTableRecord
100
AcDbRegAppTableRecord
2
ACAD
70
0
0
ENDTAB
0
TABLE
2
DIMSTYLE
5
A
100
AcDbSymbolTable
70
1
0
ENDTAB
0
TABLE
2
BLOCK_RECORD
5
1
100
AcDbSymbolTable
70
1
0
BLOCK_RECORD
5
1F
100
AcDbSymbolTableRecord
100
AcDbBlockTableRecord
2
*MODEL_SPACE
0
BLOCK_RECORD
5
1B
100
AcDbSymbolTableRecord
100
AcDbBlockTableRecord
2
*PAPER_SPACE
0
ENDTAB
0
ENDSEC
0
SECTION
2
BLOCKS
0
BLOCK
5
20
100
AcDbEntity
100
AcDbBlockBegin
2
*MODEL_SPACE
0
ENDBLK
5
21
100
AcDbEntity
100
AcDbBlockEnd
0
BLOCK
5
1C
100
AcDbEntity
100
AcDbBlockBegin
2
*PAPER_SPACE
0
ENDBLK
5
1D
100
AcDbEntity
100
AcDbBlockEnd
0
ENDSEC
0
SECTION
2
ENTITIES
0
SPLINE
5
100
100
AcDbEntity
8
0
100
AcDbSpline
70
6
71
5
72
711
73
705
74
0
42
0.000000001
43
0.0000000001
44
0.0000000001
40
0
40
0
40
0
40
0
40
0
40
0
40
0.0014285714285714286
40
0.0028571428571428571
40
0.0042857142857142859
40
0.0057142857142857143
40
0.0071428571428571426
40
0.0085714285714285719
40
0.01
40
0.011428571428571429
40
0.012857142857142857
40
0.014285714285714285
40
0.015714285714285715
40
0.017142857142857144
40
0.018571428571428572
40
0.02
40
0.021428571428571429
40
0.022857142857142857
40
0.024285714285714285
40
0.025714285714285714
40
0.027142857142857142
40
0.028571428571428571
40
0.029999999999999999
40
0.031428571428571431
40
0.032857142857142863
40
0.034285714285714294
40
0.035714285714285726
40
0.037142857142857158
40
0.03857142857142859
40
0.040000000000000022
40
0.041428571428571453
40
0.042857142857142885
40
0.044285714285714317
40
0.045714285714285749
40
0.047142857142857181
40
0.048571428571428613
40
0.050000000000000044
40
0.051428571428571476
40
0.052857142857142908
40
0.05428571428571434
40
0.055714285714285772
40
0.057142857142857204
40
0.058571428571428635
40
0.060000000000000067
40
0.061428571428571499
40
0.062857142857142931
40
0.064285714285714363
40
0.065714285714285794
40
0.067142857142857226
40
0.068571428571428658
40
0.07000000000000009
40
0.071428571428571522
40
0.072857142857142954
40
0.074285714285714385
40
0.075714285714285817
40
0.077142857142857249
40
0.078571428571428681
40
0.080000000000000113
40
0.081428571428571545
40
0.082857142857142976
40
0.084285714285714408
40
0.08571428571428584
40
0.087142857142857272
40
0.088571428571428704
40
0.090000000000000135
40
0.091428571428571567
40
0.092857142857142999
40
0.094285714285714431
40
0.095714285714285863
40
0.097142857142857295
40
0.098571428571428726
40
0.10000000000000016
40
0.10142857142857159
40
0.10285714285714302
40
0.10428571428571445
40
0.10571428571428589
40
0.10714285714285732
40
0.10857142857142875
40
0.11000000000000018
40
0.11142857142857161
40
0.11285714285714304
40
0.11428571428571448
40
0.11571428571428591
40
0.11714285714285734
40
0.11857142857142877
40
0.1200000000000002
40
0.12142857142857164
40
0.12285714285714307
40
0.1242857142857145
40
0.12571428571428592
40
0.12714285714285734
40
0.12857142857142875
40
0.13000000000000017
40
0.13142857142857159
40
0.13285714285714301
40
0.13428571428571442
40
0.13571428571428584
40
0.13714285714285726
40
0.13857142857142868
40
0.1400000000000001
40
0.14142857142857151
40
0.14285714285714293
40
0.14428571428571435
40
0.14571428571428577
40
0.14714285714285719
40
0.1485714285714286
40
0.15000000000000002
40
0.15142857142857144
40
0.15285714285714286
40
0.15428571428571428
40
0.15571428571428569
40
0.15714285714285711
40
0.15857142857142853
40
0.15999999999999995
40
0.16142857142857137
40
0.16285714285714278
40
0.1642857142857142
40
0.16571428571428562
40
0.16714285714285704
40
0.16857142857142846
40
0.16999999999999987
40
0.17142857142857129
40
0.17285714285714271
40
0.17428571428571413
40
0.17571428571428555
40
0.17714285714285696
40
0.17857142857142838
40
0.1799999999999998
40
0.18142857142857122
40
0.18285714285714263
40
0.18428571428571405
40
0.18571428571428547
40
0.18714285714285689
40
0.18857142857142831
40
0.18999999999999972
40
0.19142857142857114
40
0.19285714285714256
40
0.19428571428571398
40
0.1957142857142854
40
0.19714285714285681
40
0.19857142857142823
40
0.19999999999999965
40
0.20142857142857107
40
0.20285714285714249
40
0.2042857142857139
40
0.20571428571428532
40
0.20714285714285674
40
0.20857142857142816
40
0.20999999999999958
40
0.21142857142857099
40
0.21285714285714241
40
0.21428571428571383
40
0.21571428571428525
40
0.21714285714285667
40
0.21857142857142808
40
0.2199999999999995
40
0.22142857142857092
40
0.22285714285714234
40
0.22428571428571376
40
0.22571428571428517
40
0.22714285714285659
40
0.22857142857142801
40
0.22999999999999943
40
0.23142857142857085
40
0.23285714285714226
40
0.23428571428571368
40
0.2357142857142851
40
0.23714285714285652
40
0.23857142857142793
40
0.23999999999999935
40
0.24142857142857077
40
0.24285714285714219
40
0.24428571428571361
40
0.24571428571428502
40
0.24714285714285644
40
0.24857142857142786
40
0.24999999999999928
40
0.25142857142857072
40
0.25285714285714217
40
0.25428571428571362
40
0.25571428571428506
40
0.25714285714285651
40
0.25857142857142795
40
0.2599999999999994
40
0.26142857142857084
40
0.26285714285714229
40
0.26428571428571374
40
0.26571428571428518
40
0.26714285714285663
40
0.26857142857142807
40
0.26999999999999952
40
0.27142857142857096
40
0.27285714285714241
40
0.27428571428571386
40
0.2757142857142853
40
0.27714285714285675
40
0.27857142857142819
40
0.27999999999999964
40
0.28142857142857108
40
0.28285714285714253
40
0.28428571428571398
40
0.28571428571428542
40
0.28714285714285687
40
0.28857142857142831
40
0.28999999999999976
40
0.2914285714285712
40
0.29285714285714265
40
0.2942857142857141
40
0.29571428571428554
40
0.29714285714285699
40
0.29857142857142843
40
0.29999999999999988
40
0.30142857142857132
40
0.30285714285714277
40
0.30428571428571421
40
0.30571428571428566
40
0.30714285714285711
40
0.30857142857142855
40
0.31
40
0.31142857142857144
40
0.31285714285714289
40
0.31428571428571433
40
0.31571428571428578
40
0.31714285714285723
40
0.31857142857142867
40
0.32000000000000012
40
0.32142857142857156
40
0.32285714285714301
40
0.32428571428571445
40
0.3257142857142859
40
0.32714285714285735
40
0.32857142857142879
40
0.33000000000000024
40
0.33142857142857168
40
0.33285714285714313
40
0.33428571428571457
40
0.33571428571428602
40
0.33714285714285747
40
0.33857142857142891
40
0.34000000000000036
40
0.3414285714285718
40
0.34285714285714325
40
0.34428571428571469
40
0.34571428571428614
40
0.34714285714285759
40
0.34857142857142903
40
0.35000000000000048
40
0.35142857142857192
40
0.35285714285714337
40
0.35428571428571481
40
0.35571428571428626
40
0.35714285714285771
40
0.35857142857142915
40
0.3600000000000006
40
0.36142857142857204
40
0.36285714285714349
40
0.36428571428571493
40
0.36571428571428638
40
0.36714285714285783
40
0.36857142857142927
40
0.37000000000000072
40
0.37142857142857216
40
0.37285714285714361
40
0.37428571428571505
40
0.3757142857142865
40
0.37714285714285795
40
0.37857142857142939
40
0.38000000000000084
40
0.38142857142857228
40
0.38285714285714373
40
0.38428571428571517
40
0.38571428571428662
40
0.38714285714285807
40
0.38857142857142951
40
0.39000000000000096
40
0.3914285714285724
40
0.39285714285714385
40
0.39428571428571529
40
0.39571428571428674
40
0.39714285714285819
40
0.39857142857142963
40
0.40000000000000108
40
0.40142857142857252
40
0.40285714285714397
40
0.40428571428571541
40
0.40571428571428686
40
0.40714285714285831
40
0.40857142857142975
40
0.4100000000000012
40
0.41142857142857264
40
0.41285714285714409
40
0.41428571428571553
40
0.41571428571428698
40
0.41714285714285843
40
0.41857142857142987
40
0.42000000000000132
40
0.42142857142857276
40
0.42285714285714421
40
0.42428571428571565
40
0.4257142857142871
40
0.42714285714285855
40
0.42857142857142999
40
0.43000000000000144
40
0.43142857142857288
40
0.43285714285714433
40
0.43428571428571577
40
0.43571428571428722
40
0.43714285714285867
40
0.43857142857143011
40
0.44000000000000156
40
0.441428571428573
40
0.44285714285714445
40
0.44428571428571589
40
0.44571428571428734
40
0.44714285714285879
40
0.44857142857143023
40
0.45000000000000168
40
0.45142857142857312
40
0.45285714285714457
40
0.45428571428571601
40
0.45571428571428746
40
0.4571428571428589
40
0.45857142857143035
40
0.4600000000000018
40
0.46142857142857324
40
0.46285714285714469
40
0.46428571428571613
40
0.46571428571428758
40
0.46714285714285902
40
0.46857142857143047
40
0.47000000000000192
40
0.47142857142857336
40
0.47285714285714481
40
0.47428571428571625
40
0.4757142857142877
40
0.47714285714285914
40
0.47857142857143059
40
0.48000000000000204
40
0.48142857142857348
40
0.48285714285714493
40
0.48428571428571637
40
0.48571428571428782
40
0.48714285714285926
40
0.48857142857143071
40
0.49000000000000216
40
0.4914285714285736
40
0.49285714285714505
40
0.49428571428571649
40
0.49571428571428794
40
0.49714285714285938
40
0.49857142857143083
40
0.50000000000000222
40
0.50142857142857367
40
0.50285714285714511
40
0.50428571428571656
40
0.505714285714288
40
0.50714285714285945
40
0.50857142857143089
40
0.51000000000000234
40
0.51142857142857379
40
0.51285714285714523
40
0.51428571428571668
40
0.51571428571428812
40
0.51714285714285957
40
0.51857142857143101
40
0.52000000000000246
40
0.52142857142857391
40
0.52285714285714535
40
0.5242857142857168
40
0.52571428571428824
40
0.52714285714285969
40
0.52857142857143113
40
0.53000000000000258
40
0.53142857142857403
40
0.53285714285714547
40
0.53428571428571692
40
0.53571428571428836
40
0.53714285714285981
40
0.53857142857143125
40
0.5400000000000027
40
0.54142857142857415
40
0.54285714285714559
40
0.54428571428571704
40
0.54571428571428848
40
0.54714285714285993
40
0.54857142857143137
40
0.55000000000000282
40
0.55142857142857427
40
0.55285714285714571
40
0.55428571428571716
40
0.5557142857142886
40
0.55714285714286005
40
0.55857142857143149
40
0.56000000000000294
40
0.56142857142857439
40
0.56285714285714583
40
0.56428571428571728
40
0.56571428571428872
40
0.56714285714286017
40
0.56857142857143161
40
0.57000000000000306
40
0.57142857142857451
40
0.57285714285714595
40
0.5742857142857174
40
0.57571428571428884
40
0.57714285714286029
40
0.57857142857143173
40
0.58000000000000318
40
0.58142857142857463
40
0.58285714285714607
40
0.58428571428571752
40
0.58571428571428896
40
0.58714285714286041
40
0.58857142857143185
40
0.5900000000000033
40
0.59142857142857475
40
0.59285714285714619
40
0.59428571428571764
40
0.59571428571428908
40
0.59714285714286053
40
0.59857142857143197
40
0.60000000000000342
40
0.60142857142857487
40
0.60285714285714631
40
0.60428571428571776
40
0.6057142857142892
40
0.60714285714286065
40
0.60857142857143209
40
0.61000000000000354
40
0.61142857142857499
40
0.61285714285714643
40
0.61428571428571788
40
0.61571428571428932
40
0.61714285714286077
40
0.61857142857143221
40
0.62000000000000366
40
0.6214285714285751
40
0.62285714285714655
40
0.624285714285718
40
0.62571428571428944
40
0.62714285714286089
40
0.62857142857143233
40
0.63000000000000378
40
0.63142857142857522
40
0.63285714285714667
40
0.63428571428571812
40
0.63571428571428956
40
0.63714285714286101
40
0.63857142857143245
40
0.6400000000000039
40
0.64142857142857534
40
0.64285714285714679
40
0.64428571428571824
40
0.64571428571428968
40
0.64714285714286113
40
0.64857142857143257
40
0.65000000000000402
40
0.65142857142857546
40
0.65285714285714691
40
0.65428571428571836
40
0.6557142857142898
40
0.65714285714286125
40
0.65857142857143269
40
0.66000000000000414
40
0.66142857142857558
40
0.66285714285714703
40
0.66428571428571848
40
0.66571428571428992
40
0.66714285714286137
40
0.66857142857143281
40
0.67000000000000426
40
0.6714285714285757
40
0.67285714285714715
40
0.6742857142857186
40
0.67571428571429004
40
0.67714285714286149
40
0.67857142857143293
40
0.68000000000000438
40
0.68142857142857582
40
0.68285714285714727
40
0.68428571428571872
40
0.68571428571429016
40
0.68714285714286161
40
0.68857142857143305
40
0.6900000000000045
40
0.69142857142857594
40
0.69285714285714739
40
0.69428571428571884
40
0.69571428571429028
40
0.69714285714286173
40
0.69857142857143317
40
0.70000000000000462
40
0.70142857142857606
40
0.70285714285714751
40
0.70428571428571896
40
0.7057142857142904
40
0.70714285714286185
40
0.70857142857143329
40
0.71000000000000474
40
0.71142857142857618
40
0.71285714285714763
40
0.71428571428571908
40
0.71571428571429052
40
0.71714285714286197
40
0.71857142857143341
40
0.72000000000000486
40
0.7214285714285763
40
0.72285714285714775
40
0.7242857142857192
40
0.72571428571429064
40
0.72714285714286209
40
0.72857142857143353
40
0.73000000000000498
40
0.73142857142857642
40
0.73285714285714787
40
0.73428571428571932
40
0.73571428571429076
40
0.73714285714286221
40
0.73857142857143365
40
0.7400000000000051
40
0.74142857142857654
40
0.74285714285714799
40
0.74428571428571944
40
0.74571428571429088
40
0.74714285714286233
40
0.74857142857143377
40
0.75000000000000522
40
0.75142857142857666
40
0.75285714285714811
40
0.75428571428571956
40
0.755714285714291
40
0.75714285714286245
40
0.75857142857143389
40
0.76000000000000534
40
0.76142857142857678
40
0.76285714285714823
40
0.76428571428571968
40
0.76571428571429112
40
0.76714285714286257
40
0.76857142857143401
40
0.77000000000000546
40
0.7714285714285769
40
0.77285714285714835
40
0.77428571428571979
40
0.77571428571429124
40
0.77714285714286269
40
0.77857142857143413
40
0.78000000000000558
40
0.78142857142857702
40
0.78285714285714847
40
0.78428571428571991
40
0.78571428571429136
40
0.78714285714286281
40
0.78857142857143425
40
0.7900000000000057
40
0.79142857142857714
40
0.79285714285714859
40
0.79428571428572003
40
0.79571428571429148
40
0.79714285714286293
40
0.79857142857143437
40
0.80000000000000582
40
0.80142857142857726
40
0.80285714285714871
40
0.80428571428572015
40
0.8057142857142916
40
0.80714285714286305
40
0.80857142857143449
40
0.81000000000000594
40
0.81142857142857738
40
0.81285714285714883
40
0.81428571428572027
40
0.81571428571429172
40
0.81714285714286317
40
0.81857142857143461
40
0.82000000000000606
40
0.8214285714285775
40
0.82285714285714895
40
0.82428571428572039
40
0.82571428571429184
40
0.82714285714286329
40
0.82857142857143473
40
0.83000000000000618
40
0.83142857142857762
40
0.83285714285714907
40
0.83428571428572051
40
0.83571428571429196
40
0.83714285714286341
40
0.83857142857143485
40
0.8400000000000063
40
0.84142857142857774
40
0.84285714285714919
40
0.84428571428572063
40
0.84571428571429208
40
0.84714285714286353
40
0.84857142857143497
40
0.85000000000000642
40
0.85142857142857786
40
0.85285714285714931
40
0.85428571428572075
40
0.8557142857142922
40
0.85714285714286365
40
0.85857142857143509
40
0.86000000000000654
40
0.86142857142857798
40
0.86285714285714943
40
0.86428571428572087
40
0.86571428571429232
40
0.86714285714286377
40
0.86857142857143521
40
0.87000000000000666
40
0.8714285714285781
40
0.87285714285714955
40
0.87428571428572099
40
0.87571428571429244
40
0.87714285714286389
40
0.87857142857143533
40
0.88000000000000678
40
0.88142857142857822
40
0.88285714285714967
40
0.88428571428572111
40
0.88571428571429256
40
0.88714285714286401
40
0.88857142857143545
40
0.8900000000000069
40
0.89142857142857834
40
0.89285714285714979
40
0.89428571428572123
40
0.89571428571429268
40
0.89714285714286413
40
0.89857142857143557
40
0.90000000000000702
40
0.90142857142857846
40
0.90285714285714991
40
0.90428571428572135
40
0.9057142857142928
40
0.90714285714286425
40
0.90857142857143569
40
0.91000000000000714
40
0.91142857142857858
40
0.91285714285715003
40
0.91428571428572147
40
0.91571428571429292
40
0.91714285714286437
40
0.91857142857143581
40
0.92000000000000726
40
0.9214285714285787
40
0.92285714285715015
40
0.92428571428572159
40
0.92571428571429304
40
0.92714285714286448
40
0.92857142857143593
40
0.93000000000000738
40
0.93142857142857882
40
0.93285714285715027
40
0.93428571428572171
40
0.93571428571429316
40
0.9371428571428646
40
0.93857142857143605
40
0.9400000000000075
40
0.94142857142857894
40
0.94285714285715039
40
0.94428571428572183
40
0.94571428571429328
40
0.94714285714286472
40
0.94857142857143617
40
0.95000000000000762
40
0.95142857142857906
40
0.95285714285715051
40
0.95428571428572195
40
0.9557142857142934
40
0.95714285714286484
40
0.95857142857143629
40
0.96000000000000774
40
0.96142857142857918
40
0.96285714285715063
40
0.96428571428572207
40
0.96571428571429352
40
0.96714285714286496
40
0.96857142857143641
40
0.97000000000000786
40
0.9714285714285793
40
0.97285714285715075
40
0.97428571428572219
40
0.97571428571429364
40
0.97714285714286508
40
0.97857142857143653
40
0.98000000000000798
40
0.98142857142857942
40
0.98285714285715087
40
0.98428571428572231
40
0.98571428571429376
40
0.9871428571428652
40
0.98857142857143665
40
0.9900000000000081
40
0.99142857142857954
40
0.99285714285715099
40
0.99428571428572243
40
0.99571428571429388
40
0.99714285714286532
40
0.99857142857143677
40
1
40
1
40
1
40
1
40
1
40
1
41
1
41
1
41
1
41
1
41
1
41
1
41
1
41
1
41
1
41
1
41
1
41
1
41
1
41
1
41
1
41
1
41
1
41
1
41
1
41
1
41
1
41
1
41
1
41
1
41
1
41
1
41
1
41
1
41
1
41
1
41
1
41
1
41
1
41
1
41
1
41
1
41
1
41
1
41
1
41
1
41
1
41
1
41
1
41
1
41
1
41
1
41
1
41
1
41
1
41
1
41
1
41
1
41
1
41
1
41
1
41
1
41
1
41
1
41
1
41
1
41
1
41
1
41
1
41
1
41
1
41
1
41
1
41
1
41
1
41
1
41
1
41
1
41
1
41
1
41
1
41
1
41
1
41
1
41
1
41
1
41
1
41
1
41
1
41
1
41
1
41
1
41
1
41
1
41
1
41
1
41
1
41
1
41
1
41
1
41
1
41
1
41
1
41
1
41
1
41
1
41
1
41
1
41
1
41
1
41
1
41
1
41
1
41
1
41
1
41
1
41
1
41
1
41
1
41
1
41
1
41
1
41
1
41
1
41
1
41
1
41
1
41
1
41
1
41
1
41
1
41
1
41
1
41
1
41
1
41
1
41
1
41
1
41
1
41
1
41
1
41
1
41
1
41
1
41
1
41
1
41
1
41
1
41
1
41
1
41
1
41
1
41
1
41
1
41
1
41
1
41
1
41
1
41
1
41
1
41
1
41
1
41
1
41
1
41
1
41
1
41
1
41
1
41
1
41
1
41
1
41
1
41
1
41
1
41
1
41
1
41
1
41
1
41
1
41
1
41
1
41
1
41
1
41
1
41
1
41
1
41
1
41
1
41
1
41
1
41
1
41
1
41
1
41
1
41
1
41
1
41
1
41
1
41
1
41
1
41
1
41
1
41
1
41
1
41
1
41
1
41
1
41
1
41
1
41
1
41
1
41
1
41
1
41
1
41
1
41
1
41
1
41
1
41
1
41
1
41
1
41
1
41
1
41
1
41
1
41
1
41
1
41
1
41
1
41
1
41
1
41
1
41
1
41
1
41
1
41
1
41
1
41
1
41
1
41
1
41
1
41
1
41
1
41
1
41
1
41
1
41
1
41
1
41
1
41
1
41
1
41
1
41
1
41
1
41
1
41
1
41
1
41
1
41
1
41
1
41
1
41
1
41
1
41
1
41
1
41
1
41
1
41
1
41
1
41
1
41
1
41
1
41
1
41
1
41
1
41
1
41
1
41
1
41
1
41
1
41
1
41
1
41
1
41
1
41
1
41
1
41
1
41
1
41
1
41
1
41
1
41
1
41
1
41
1
41
1
41
1
41
1
41
1
41
1
41
1
41
1
41
1
41
1
41
1
41
1
41
1
41
1
41
1
41
1
41
1
41
1
41
1
41
1
41
1
41
1
41
1
41
1
41
1
41
1
41
1
41
1
41
1
41
1
41
1
41
1
41
1
41
1
41
1
41
1
41
1
41
1
41
1
41
1
41
1
41
1
41
1
41
1
41
1
41
1
41
1
41
1
41
1
41
1
41
1
41
1
41
1
41
1
41
1
41
1
41
1
41
1
41
1
41
1
41
1
41
1
41
1
41
1
41
1
41
1
41
1
41
1
41
1
41
1
41
1
41
1
41
1
41
1
41
1
41
1
41
1
41
1
41
1
41
1
41
1
41
1
41
1
41
1
41
1
41
1
41
1
41
1
41
1
41
1
41
1
41
1
41
1
41
1
41
1
41
1
41
1
41
1
41
1
41
1
41
1
41
1
41
1
41
1
41
1
41
1
41
1
41
1
41
1
41
1
41
1
41
1
41
1
41
1
41
1
41
1
41
1
41
1
41
1
41
1
41
1
41
1
41
1
41
1
41
1
41
1
41
1
41
1
41
1
41
1
41
1
41
1
41
1
41
1
41
1
41
1
41
1
41
1
41
1
41
1
41
1
41
1
41
1
41
1
41
1
41
1
41
1
41
1
41
1
41
1
41
1
41
1
41
1
41
1
41
1
41
1
41
1
41
1
41
1
41
1
41
1
41
1
41
1
41
1
41
1
41
1
41
1
41
1
41
1
41
1
41
1
41
1
41
1
41
1
41
1
41
1
41
1
41
1
41
1
41
1
41
1
41
1
41
1
41
1
41
1
41
1
41
1
41
1
41
1
41
1
41
1
41
1
41
1
41
1
41
1
41
1
41
1
41
1
41
1
41
1
41
1
41
1
41
1
41
1
41
1
41
1
41
1
41
1
41
1
41
1
41
1
41
1
41
1
41
1
41
1
41
1
41
1
41
1
41
1
41
1
41
1
41
1
41
1
41
1
41
1
41
1
41
1
41
1
41
1
41
1
41
1
41
1
41
1
41
1
41
1
41
1
41
1
41
1
41
1
41
1
41
1
41
1
41
1
41
1
41
1
41
1
41
1
41
1
41
1
41
1
41
1
41
1
41
1
41
1
41
1
41
1
41
1
41
1
41
1
41
1
41
1
41
1
41
1
41
1
41
1
41
1
41
1
41
1
41
1
41
1
41
1
41
1
41
1
41
1
41
1
41
1
41
1
41
1
41
1
41
1
41
1
41
1
41
1
41
1
41
1
41
1
41
1
41
1
41
1
41
1
41
1
41
1
41
1
41
1
41
1
41
1
41
1
41
1
41
1
41
1
41
1
41
1
41
1
41
1
41
1
41
1
41
1
41
1
41
1
41
1
41
1
41
1
41
1
41
1
41
1
41
1
41
1
41
1
41
1
41
1
41
1
41
1
41
1
41
1
41
1
41
1
41
1
41
1
41
1
41
1
41
1
41
1
41
1
41
1
41
1
41
1
41
1
41
1
41
1
41
1
41
1
41
1
41
1
41
1
41
1
41
1
41
1
41
1
41
1
41
1
41
1
41
1
41
1
41
1
41
1
41
1
41
1
41
1
41
1
41
1
41
1
41
1
41
1
41
1
41
1
41
1
41
1
41
1
41
1
41
1
41
1
41
1
41
1
41
1
41
1
41
1
41
1
41
1
41
1
41
1
41
1
41
1
41
1
41
1
41
1
41
1
41
1
41
1
41
1
41
1
41
1
41
1
41
1
41
1
41
1
41
1
41
1
41
1
41
1
41
1
41
1
41
1
41
1
41
1
41
1
41
1
41
1
41
1
41
1
41
1
41
1
41
1
41
1
41
1
41
1
41
1
41
1
41
1
10
-20.863178385430693
20
89.711310179841476
30
0
10
-20.965430382252848
20
89.69204511115278
30
0
10
-21.173661377872371
20
89.652563703421151
30
0
10
-21.499665711747348
20
89.590208633960145
30
0
10
-21.964493610060426
20
89.500915084042219
30
0
10
-22.581741504990692
20
89.382646890737789
30
0
10
-23.213730840417529
20
89.261923138211316
30
0
10
-23.845877179918098
20
89.140671723076323
30
0
10
-24.483450791201893
20
89.015994635377368
30
0
10
-25.142708892163679
20
88.882469145075547
30
0
10
-25.842642134735577
20
88.734333571334943
30
0
10
-26.597339758482427
20
88.567483797869642
30
0
10
-27.406021939994815
20
88.382117032768235
30
0
10
-28.253075419239284
20
88.182632569928643
30
0
10
-29.115670713012069
20
87.975457697125933
30
0
10
-29.969153124570454
20
87.767482955834623
30
0
10
-30.793385813484168
20
87.564236114066347
30
0
10
-31.578602069023802
20
87.368192419466126
30
0
10
-32.331693333715307
20
87.176960304031866
30
0
10
-33.070358505040765
20
86.985020674590686
30
0
10
-33.817130080350751
20
86.785501875321231
30
0
10
-34.593231982905394
20
86.57200598675395
30
0
10
-35.412992283895029
20
86.340267340203539
30
0
10
-36.276766530082355
20
86.090260908805448
30
0
10
-37.173256968629424
20
85.825473214232474
30
0
10
-38.084541745083513
20
85.551354938574192
30
0
10
-38.990115808958876
20
85.274071839394423
30
0
10
-39.871515545611317
20
84.999079713078189
30
0
10
-40.716295789501082
20
84.729894173262522
30
0
10
-41.523308399684907
20
84.466469242151419
30
0
10
-42.300897354144411
20
84.20570602794983
30
0
10
-43.062838077342469
20
83.942642713734458
30
0
10
-43.824941261388958
20
83.671438491836753
30
0
10
-44.601561891885936
20
83.386400304701368
30
0
10
-45.401711046972594
20
83.083094846390452
30
0
10
-46.226732113024902
20
82.759094508933771
30
0
10
-47.072630200432613
20
82.41362885576541
30
0
10
-47.931540569152133
20
82.047432112133691
30
0
10
-48.79356894493305
20
81.662520187897059
30
0
10
-49.648401332997729
20
81.261981508551969
30
0
10
-50.487186247697551
20
80.849801318777793
30
0
10
-51.303731251222189
20
80.430540759086199
30
0
10
-52.094220168121304
20
80.008649111684051
30
0
10
-52.857213884614893
20
79.587870994380538
30
0
10
-53.593561999894817
20
79.170572290686778
30
0
10
-54.306298295615591
20
78.75720067414909
30
0
10
-55.000676549965426
20
78.345442709778808
30
0
10
-55.68363999963465
20
77.930444408516351
30
0
10
-56.362643088176505
20
77.506226774067414
30
0
10
-57.044625647621892
20
77.066808552790874
30
0
10
-57.734962431341572
20
76.607407173715728
30
0
10
-58.436334776878596
20
76.125703007368855
30
0
10
-59.147895853253985
20
75.622791635465802
30
0
10
-59.866643655228685
20
75.101713830417125
30
0
10
-60.588544303164802
20
74.566261416764007
30
0
10
-61.30979543693843
20
74.019627383996138
30
0
10
-62.027929443319167
20
73.46323537252141
30
0
10
-62.743228541154878
20
72.895218721001115
30
0
10
-63.45920140214929
20
72.309954917878727
30
0
10
-64.181046024534339
20
71.699864989333705
30
0
10
-64.914522648340792
20
71.056751804920509
30
0
10
-65.664669944045031
20
70.373314361370646
30
0
10
-66.434572613004434
20
69.644604957380722
30
0
10
-67.224143470191621
20
68.869468387795123
30
0
10
-68.028799809464516
20
68.052104537176149
30
0
10
-68.840579798490793
20
67.200793908553763
30
0
10
-69.649392005037228
20
66.326468427895136
30
0
10
-70.444225752834427
20
65.441327830656192
30
0
10
-71.214356790793246
20
64.557461333255333
30
0
10
-71.950604122966439
20
63.685410243104776
30
0
10
-72.646450178939091
20
62.832888468540709
30
0
10
-73.299498903926377
20
62.003112549539935
30
0
10
-73.911826188021081
20
61.194411589463158
30
0
10
-74.488413311625891
20
60.402051420872354
30
0
10
-75.036008119798268
20
59.61956574063646
30
0
10
-75.561825537054816
20
58.840270241135954
30
0
10
-76.072291068767555
20
58.058733172811372
30
0
10
-76.571826349790015
20
57.272183000565235
30
0
10
-77.061454340704984
20
56.482162010740204
30
0
10
-77.539692813800784
20
55.693089314292251
30
0
10
-78.003707170701247
20
54.910472582595951
30
0
10
-78.450363034265749
20
54.139258527622658
30
0
10
-78.877337976992322
20
53.382095184724498
30
0
10
-79.284168180436154
20
52.637701838897293
30
0
10
-79.673430106620856
20
51.89900442413208
30
0
10
-80.049718733295833
20
51.155140852226488
30
0
10
-80.418497843076423
20
50.39369017360044
30
0
10
-80.784961430446202
20
49.602885358134429
30
0
10
-81.152969831642835
20
48.773687036456899
30
0
10
-81.523762483360699
20
47.90226852081701
30
0
10
-81.895390555964255
20
46.991177109681459
30
0
10
-82.263859537971513
20
46.047347545547936
30
0
10
-82.62394119469441
20
45.080728796850956
30
0
10
-82.970101724081388
20
44.102685194815628
30
0
10
-83.297415290958853
20
43.124452155984073
30
0
10
-83.602401815241677
20
42.155666373233757
30
0
10
-83.884108312500999
20
41.202612327026955
30
0
10
-84.143796675541722
20
40.26812053796948
30
0
10
-84.384120845144452
20
39.352057987736416
30
0
10
-84.608483720776832
20
38.451636242238138
30
0
10
-84.82029249177242
20
37.561768054855669
30
0
10
-85.022319230865804
20
36.675467188104605
30
0
10
-85.215864722599846
20
35.784072162375551
30
0
10
-85.400574620542699
20
34.878138064324801
30
0
10
-85.575039629382303
20
33.949166846513172
30
0
10
-85.737192321361775
20
32.991098247450267
30
0
10
-85.884792931885215
20
32.001950048896347
30
0
10
-86.015862401532075
20
30.98527471789323
30
0
10
-86.129173129763345
20
29.951980930001657
30
0
10
-86.224610569367158
20
28.921147577725506
30
0
10
-86.30286086680627
20
27.915359746897135
30
0
10
-86.365178820829911
20
26.956679155283979
30
0
10
-86.413126317658026
20
26.062431160362411
30
0
10
-86.448319938056514
20
25.240928515239375
30
0
10
-86.472182618908732
20
24.487554645543593
30
0
10
-86.485672214522808
20
23.779803059749149
30
0
10
-86.489291026551257
20
23.084139568176781
30
0
10
-86.483129053723445
20
22.364324685944432
30
0
10
-86.466896142659095
20
21.589141301514132
30
0
10
-86.439956681225112
20
20.740545480485974
30
0
10
-86.401369106448627
20
19.821152937382553
30
0
10
-86.350085571246979
20
18.84808371535463
30
0
10
-86.285147543325934
20
17.847254571821558
30
0
10
-86.20587850951955
20
16.847588969059359
30
0
10
-86.112087988212721
20
15.875070144620853
30
0
10
-86.004247050398732
20
14.947311717001696
30
0
10
-85.88373795016993
20
14.066727227408148
30
0
10
-85.752565173228973
20
13.223987846991264
30
0
10
-85.612953843178985
20
12.403672940934538
30
0
10
-85.466978651750622
20
11.589254226486043
30
0
10
-85.316198391769845
20
10.768162391925456
30
0
10
-85.161244290496143
20
9.937287111358609
30
0
10
-85.001558532555208
20
9.106900555033361
30
0
10
-84.836106261464423
20
8.2943696793379207
30
0
10
-84.663959231594418
20
7.5191066943939378
30
0
10
-84.484965628632054
20
6.7968852911369373
30
0
10
-84.300298561702576
20
6.1347871592411529
30
0
10
-84.113283702911588
20
5.5249246271489145
30
0
10
-83.927678103402798
20
4.9481733189076991
30
0
10
-83.745332520203789
20
4.3796892716857254
30
0
10
-83.564417979233241
20
3.7935904654518025
30
0
10
-83.376559472335074
20
3.1685131413210152
30
0
10
-83.169025731688549
20
2.4899394857047605
30
0
10
-82.92908457471556
20
1.7510989815742359
30
0
10
-82.647806462296785
20
0.95443506040894133
30
0
10
-82.323790328611537
20
0.1125777927725137
30
0
10
-81.967730041435999
20
-0.74979093866324953
30
0
10
-81.598335329126968
20
-1.6013986157085962
30
0
10
-81.236930603919589
20
-2.4108817521733958
30
0
10
-80.902395382034683
20
-3.1530927420304034
30
0
10
-80.60624048079319
20
-3.8151044300225974
30
0
10
-80.346959769579925
20
-4.4032579068668918
30
0
10
-80.106695537408399
20
-4.9470164530900966
30
0
10
-79.859606620669553
20
-5.4867780906098602
30
0
10
-79.578678971339315
20
-6.0638232306683317
30
0
10
-79.243192621824477
20
-6.7093567073699765
30
0
10
-78.845768173646832
20
-7.4341450341406157
30
0
10
-78.389369061526025
20
-8.2331011569338806
30
0
10
-77.884412031450665
20
-9.0897028293241462
30
0
10
-77.345848609363429
20
-9.9804563194547384
30
0
10
-76.790239566975885
20
-10.879369937791836
30
0
10
-76.232877761980149
20
-11.762355043123335
30
0
10
-75.684766887084137
20
-12.611843853618874
30
0
10
-75.152890426181372
20
-13.416454095428005
30
0
10
-74.640642506036144
20
-14.170410015575655
30
0
10
-74.148209257848791
20
-14.873037655765311
30
0
10
-73.672949493214958
20
-15.528261751199523
30
0
10
-73.20982621085102
20
-16.144024711110898
30
0
10
-72.751682764835138
20
-16.731943178000126
30
0
10
-72.290926106322786
20
-17.304807829885096
30
0
10
-71.821410078038738
20
-17.873771522116346
30
0
10
-71.340295148684902
20
-18.445584661022711
30
0
10
-70.849811516847851
20
-19.019952607366935
30
0
10
-70.35935741452677
20
-19.586450787116028
30
0
10
-69.880924168558906
20
-20.130163266950291
30
0
10
-69.423794719708809
20
-20.638225200738493
30
0
10
-68.990003310961157
20
-21.105475754560246
30
0
10
-68.56831369308739
20
-21.541796051681811
30
0
10
-68.132425865046372
20
-21.974666396199233
30
0
10
-67.652364463970784
20
-22.436794096819021
30
0
10
-67.104075356190364
20
-22.955812721578475
30
0
10
-66.478846726868156
20
-23.544073795291141
30
0
10
-65.795071783346202
20
-24.186063015613264
30
0
10
-65.090269770317477
20
-24.84614966637907
30
0
10
-64.408826567515362
20
-25.480760247023085
30
0
10
-63.791077446211808
20
-26.049154681712338
30
0
10
-63.262133201075414
20
-26.524493515624439
30
0
10
-62.82008625634078
20
-26.905483837669614
30
0
10
-62.426649488387824
20
-27.225690053354754
30
0
10
-62.027596516084301
20
-27.534204503825141
30
0
10
-61.56925679970503
20
-27.880085320843406
30
0
10
-61.01993478389241
20
-28.29212536055584
30
0
10
-60.376857041792029
20
-28.772306747281924
30
0
10
-59.655344413596097
20
-29.30605566541535
30
0
10
-58.882476085973856
20
-29.868250117875242
30
0
10
-58.088859824040213
20
-30.431022346314517
30
0
10
-57.301382564238878
20
-30.970623071171694
30
0
10
-56.535079449175647
20
-31.475149660366199
30
0
10
-55.794992021957192
20
-31.94230784082421
30
0
10
-55.078597381219254
20
-32.37660947339765
30
0
10
-54.378056557409479
20
-32.786730763775452
30
0
10
-53.682489305503999
20
-33.182893333134935
30
0
10
-52.980356209563325
20
-33.574019337468272
30
0
10
-52.261429156921679
20
-33.965651980100056
30
0
10
-51.517239352493611
20
-34.360713212076902
30
0
10
-50.741739241632288
20
-34.759811871731181
30
0
10
-49.931940004204932
20
-35.161726206120306
30
0
10
-49.088422576758397
20
-35.563816490447671
30
0
10
-48.216247527519862
20
-35.962456374134092
30
0
10
-47.3240474506472
20
-36.353511940144898
30
0
10
-46.422005372270235
20
-36.732870077195471
30
0
10
-45.520204816250391
20
-37.096940732582027
30
0
10
-44.626755292884795
20
-37.443192769873733
30
0
10
-43.746177852891662
20
-37.770622791031904
30
0
10
-42.877282822786867
20
-38.08038004622253
30
0
10
-42.012563289968014
20
-38.375907286677318
30
0
10
-41.141097195138265
20
-38.661952806275004
30
0
10
-40.250737053495669
20
-38.943811882715742
30
0
10
-39.330614618846361
20
-39.226466998298207
30
0
10
-38.373438674849673
20
-39.513794104195362
30
0
10
-37.378054110520026
20
-39.807686162878674
30
0
10
-36.351386424388046
20
-40.107370600528114
30
0
10
-35.305742032705091
20
-40.410192074047167
30
0
10
-34.256534203789556
20
-40.71226035848219
30
0
10
-33.219865849515877
20
-41.009144847019662
30
0
10
-32.210128410281335
20
-41.296560561875104
30
0
10
-31.23769787018712
20
-41.571031465828597
30
0
10
-30.306340134190766
20
-41.830626542373182
30
0
10
-29.411485727915551
20
-42.075476160822689
30
0
10
-28.543219081436163
20
-42.307096108123297
30
0
10
-27.688660862101301
20
-42.52786430908057
30
0
10
-26.834627978156472
20
-42.740429390722895
30
0
10
-25.97007803982644
20
-42.947168872672165
30
0
10
-25.088878715508258
20
-43.149576856882696
30
0
10
-24.191742078643763
20
-43.347829252889547
30
0
10
-23.283865842162008
20
-43.541257899626594
30
0
10
-22.373124991119294
20
-43.728708099333389
30
0
10
-21.468024948644519
20
-43.908946986609891
30
0
10
-20.575814203368029
20
-44.081037237645845
30
0
10
-19.700390388177084
20
-44.244756693581529
30
0
10
-18.840702888804095
20
-44.400906493719177
30
0
10
-17.99228908680686
20
-44.550909460615891
30
0
10
-17.148453984398021
20
-44.696491970192866
30
0
10
-16.301622956672578
20
-44.839320107935102
30
0
10
-15.444538640285481
20
-44.980686356755051
30
0
10
-14.571725572007244
20
-45.121098627100139
30
0
10
-13.680112889196575
20
-45.260186534038702
30
0
10
-12.768504382600899
20
-45.397047620247825
30
0
10
-11.837331986501148
20
-45.530481624132989
30
0
10
-10.888290565347475
20
-45.65927941394424
30
0
10
-9.9240328756059455
20
-45.782466927543396
30
0
10
-8.9478158976725055
20
-45.899620910031032
30
0
10
-7.9632455734271339
20
-46.010975368019359
30
0
10
-6.9741837437689913
20
-46.117148496890088
30
0
10
-5.9846200597487886
20
-46.218951431236562
30
0
10
-4.9985583473357584
20
-46.317166859102144
30
0
10
-4.0198957492825453
20
-46.41233444037411
30
0
10
-3.0523074442318148
20
-46.504547593754111
30
0
10
-2.0991223161119796
20
-46.59320731258768
30
0
10
-1.1632819707896687
20
-46.677225879166038
30
0
10
-0.24731491236243192
20
-46.755297062358764
30
0
10
0.64670151178097601
20
-46.82613805878858
30
0
10
1.5171585557723766
20
-46.888753986477731
30
0
10
2.362978558388467
20
-46.942667755579663
30
0
10
3.1835643780596761
20
-46.988229909172887
30
0
10
3.9795091663798616
20
-47.02637712530462
30
0
10
4.7534221474869369
20
-47.058276744251003
30
0
10
5.51081437822035
20
-47.084992757268083
30
0
10
6.2607349814377899
20
-47.107182404819739
30
0
10
7.0170726889763211
20
-47.124681070338667
30
0
10
7.7971082964687808
20
-47.136570909918177
30
0
10
8.6181304677729678
20
-47.141596230950064
30
0
10
9.494563328089761
20
-47.138482071049523
30
0
10
10.435008677234325
20
-47.12628119641942
30
0
10
11.439027412299257
20
-47.104736108638612
30
0
10
12.49491329064335
20
-47.074554082424271
30
0
10
13.583613933274254
20
-47.037117223034485
30
0
10
14.681955136203285
20
-46.994257729911737
30
0
10
15.766093837187755
20
-46.948010312423023
30
0
10
16.814966175607687
20
-46.900368909135466
30
0
10
17.813522697806782
20
-46.8530541783514
30
0
10
18.756572483808711
20
-46.807245985468782
30
0
10
19.650739475368937
20
-46.763426357124835
30
0
10
20.510320430653106
20
-46.721579739227501
30
0
10
21.354233103243594
20
-46.681329991853005
30
0
10
22.202425947982295
20
-46.642107340273846
30
0
10
23.072768294124341
20
-46.603290958365491
30
0
10
23.977120658224401
20
-46.564390364461687
30
0
10
24.919992698573576
20
-46.525106856995976
30
0
10
25.900636496150625
20
-46.485236447383862
30
0
10
26.914293810322722
20
-46.444611729169331
30
0
10
27.953783190811457
20
-46.40302824556818
30
0
10
29.010947691518787
20
-46.360176889635227
30
0
10
30.078148258709817
20
-46.315575123262263
30
0
10
31.149776689349086
20
-46.26849481605533
30
0
10
32.22179639342103
20
-46.218085736326614
30
0
10
33.291228510397239
20
-46.163504133901782
30
0
10
34.355657904890791
20
-46.104039579574867
30
0
10
35.412731946794366
20
-46.039242222834964
30
0
10
36.459659606510975
20
-45.969050618819523
30
0
10
37.492717041188335
20
-45.893917544654187
30
0
10
38.506731418061591
20
-45.814941703094988
30
0
10
39.496180785460304
20
-45.733588669206796
30
0
10
40.456347022171535
20
-45.651399739336071
30
0
10
41.384401036248263
20
-45.569714833857091
30
0
10
42.28062554716626
20
-45.48936777432931
30
0
10
43.149324572588881
20
-45.410444031893547
30
0
10
44.000508827075194
20
-45.331883963958703
30
0
10
44.84815185601137
20
-45.251768999089599
30
0
10
45.706413245659121
20
-45.168013416834285
30
0
10
46.586538463685812
20
-45.078919937728195
30
0
10
47.493357091315914
20
-44.983818555607755
30
0
10
48.422237198701303
20
-44.883606895021977
30
0
10
49.355090446906118
20
-44.781499253946706
30
0
10
50.26522247740634
20
-44.681832560376009
30
0
10
51.123292568814129
20
-44.588636439154065
30
0
10
51.903074160182889
20
-44.504229345875558
30
0
10
52.586866740882392
20
-44.427932315454683
30
0
10
53.172094687410848
20
-44.354423798361474
30
0
10
53.674115147533037
20
-44.273223354272673
30
0
10
54.115708764484424
20
-44.172113715213932
30
0
10
54.519500767236622
20
-44.039711027069401
30
0
10
54.897605844055235
20
-43.868815465732105
30
0
10
55.253704997853561
20
-43.656388861033328
30
0
10
55.58840806163191
20
-43.402717935550079
30
0
10
55.903420163011965
20
-43.110749626381015
30
0
10
56.198793408439897
20
-42.783102590431184
30
0
10
56.469389252186673
20
-42.418522859939863
30
0
10
56.70315592214115
20
-42.010055232123705
30
0
10
56.888607483807789
20
-41.552315502984897
30
0
10
57.021434004110255
20
-41.047995524163824
30
0
10
57.110831641100205
20
-40.51386568188795
30
0
10
57.172430494303953
20
-39.976976962642993
30
0
10
57.222557858868093
20
-39.469912565182483
30
0
10
57.270826334870634
20
-39.029649417590122
30
0
10
57.318419858747703
20
-38.682341578635501
30
0
10
57.359563085927377
20
-38.425417311052279
30
0
10
57.382523051076404
20
-38.198284194490981
30
0
10
57.397187479383227
20
-37.96039676635948
30
0
10
57.486797616691582
20
-37.762022349238812
30
0
10
57.584872746353078
20
-37.625930593590539
30
0
10
57.656739842242331
20
-37.503841633316796
30
0
10
57.843118038043009
20
-37.346630175559717
30
0
10
57.962873303364375
20
-37.334160700104782
30
0
10
58.176949491134721
20
-37.316753195212534
30
0
10
58.460312324758981
20
-37.250118418057184
30
0
10
58.643149963244426
20
-37.239998053889323
30
0
10
58.894352851782429
20
-37.247184364430595
30
0
10
59.375381965864904
20
-37.225073552048727
30
0
10
60.101395305136833
20
-37.161770398619574
30
0
10
61.012752648501376
20
-37.064090567416081
30
0
10
62.004225736988239
20
-36.950761258299309
30
0
10
62.967938747735644
20
-36.842805193588291
30
0
10
63.837686197763929
20
-36.753552519385757
30
0
10
64.606663624790286
20
-36.684439565213445
30
0
10
65.302170253776978
20
-36.630117219213034
30
0
10
65.970473691270243
20
-36.581349543905695
30
0
10
66.658779074769825
20
-36.528572668330497
30
0
10
67.395479606741816
20
-36.465740227275788
30
0
10
68.181358546280507
20
-36.392080568178372
30
0
10
69.00110537899306
20
-36.30993671512978
30
0
10
69.830274933381986
20
-36.223487160983908
30
0
10
70.643808376459418
20
-36.137163594370932
30
0
10
71.424533966351589
20
-36.05407559913904
30
0
10
72.169736038199204
20
-35.974799435895328
30
0
10
72.886351940389403
20
-35.898308490352157
30
0
10
73.58763196010797
20
-35.822635379566535
30
0
10
74.289363166631176
20
-35.745598194414605
30
0
10
75.00596027012628
20
-35.665595509145732
30
0
10
75.747658564186324
20
-35.582058050513893
30
0
10
76.520608855612636
20
-35.495049923466652
30
0
10
77.326341597109206
20
-35.405036677889406
30
0
10
78.161571284992519
20
-35.312596528515712
30
0
10
79.017645630323386
20
-35.218133004870381
30
0
10
79.880799139340738
20
-35.121657563494473
30
0
10
80.73521480684397
20
-35.022875249288894
30
0
10
81.565578957285055
20
-34.921221040046355
30
0
10
82.359973160100068
20
-34.815915230051829
30
0
10
83.11230289423267
20
-34.706011572678989
30
0
10
83.825742493735504
20
-34.590446276047508
30
0
10
84.510997297777493
20
-34.468099759864515
30
0
10
85.18252611598794
20
-34.337864750537065
30
0
10
85.855446925469963
20
-34.198712161498143
30
0
10
86.542108242058873
20
-34.049758102411936
30
0
10
87.248942727265757
20
-33.890329783368458
30
0
10
87.977526152983586
20
-33.72000309323235
30
0
10
88.725508933697697
20
-33.538642939264079
30
0
10
89.487594531970444
20
-33.346438927229713
30
0
10
90.256497246133875
20
-33.14395147241909
30
0
10
91.023910987226188
20
-32.932128553996783
30
0
10
91.781489344556576
20
-32.71213306602511
30
0
10
92.52182646584815
20
-32.485191227988359
30
0
10
93.239435768891767
20
-32.252432138184645
30
0
10
93.931733773264142
20
-32.014732792308095
30
0
10
94.600009935761278
20
-31.772556832162202
30
0
10
95.248555904917524
20
-31.525818602151126
30
0
10
95.883818475559167
20
-31.2737202565853
30
0
10
96.513527240099407
20
-31.014650952301711
30
0
10
97.145871798007008
20
-30.745936514171603
30
0
10
97.788531967934077
20
-30.464074504454572
30
0
10
98.447550959242733
20
-30.165724366152048
30
0
10
99.126139048412284
20
-29.84859296112008
30
0
10
99.823731637400584
20
-29.512215326362735
30
0
10
100.53437304630566
20
-29.159147023498843
30
0
10
101.2482523302232
20
-28.794122775025549
30
0
10
101.954733716211
20
-28.422239894506383
30
0
10
102.6450842039751
20
-28.047341876838942
30
0
10
103.31496000268459
20
-27.670553785515292
30
0
10
103.9678929052598
20
-27.288178530251834
30
0
10
104.61494190302416
20
-26.892046832884148
30
0
10
105.27004481243951
20
-26.472611901432682
30
0
10
105.9463630620165
20
-26.021420659404217
30
0
10
106.65251339608182
20
-25.533630073453146
30
0
10
107.38815190242789
20
-25.011003002056917
30
0
10
108.14207805148615
20
-24.46309122526965
30
0
10
108.89730313671151
20
-23.903424334216211
30
0
10
109.63471757204188
20
-23.346708005852797
30
0
10
110.3374907110159
20
-22.805484016567149
30
0
10
110.99475212956541
20
-22.287336703742273
30
0
10
111.60656541987086
20
-21.791096966570898
30
0
10
112.18503089872962
20
-21.30606457100496
30
0
10
112.74815836416202
20
-20.816876264417665
30
0
10
113.31516712872426
20
-20.307256132889115
30
0
10
113.90150041385566
20
-19.763996616769312
30
0
10
114.51328403484277
20
-19.181355205276645
30
0
10
115.14414804851015
20
-18.563662284358891
30
0
10
115.78019175890879
20
-17.921781940762759
30
0
10
116.40348319975431
20
-17.270654410473096
30
0
10
116.99630109048016
20
-16.626339698608717
30
0
10
117.54468081563641
20
-16.003440909536359
30
0
10
118.04319804962368
20
-15.411950984876505
30
0
10
118.49541832365141
20
-14.856031310977411
30
0
10
118.91043676168516
20
-14.334565154686121
30
0
10
119.30045814753385
20
-13.841165840613876
30
0
10
119.67803793899731
20
-13.364531513057827
30
0
10
120.05324255673357
20
-12.888321574303488
30
0
10
120.4330471612007
20
-12.394918641272884
30
0
10
120.821067138327
20
-11.870107492398695
30
0
10
121.21731333892534
20
-11.306857984108728
30
0
10
121.61758342640012
20
-10.710904893126198
30
0
10
122.01501133649286
20
-10.097531480599578
30
0
10
122.40253134716802
20
-9.4847606969789968
30
0
10
122.77503551754924
20
-8.8877250178172176
30
0
10
123.13168200337441
20
-8.3124976484082058
30
0
10
123.47807853058464
20
-7.7502807577992181
30
0
10
123.82353085386706
20
-7.1828474695100617
30
0
10
124.1782087803324
20
-6.5881135697333644
30
0
10
124.55058126010194
20
-5.9452619305795125
30
0
10
124.94416465338227
20
-5.241011914633634
30
0
10
125.3568394717357
20
-4.4716091251261085
30
0
10
125.78270207618779
20
-3.6406146318648362
30
0
10
126.21321126087614
20
-2.757828679350498
30
0
10
126.63865466216612
20
-1.8377719697165396
30
0
10
127.04940512169455
20
-0.89830712204085406
30
0
10
127.43744772107314
20
0.040677683258971066
30
0
10
127.79708061320233
20
0.95910841157444093
30
0
10
128.12483281820155
20
1.8392187321904439
30
0
10
128.41957141691461
20
2.6677568017546038
30
0
10
128.68257703718649
20
3.4385419589854669
30
0
10
128.91752762740293
20
4.1543340273236362
30
0
10
129.13078011969546
20
4.8303182107229929
30
0
10
129.33055729863122
20
5.4919407555058344
30
0
10
129.52493315960345
20
6.1664889547267965
30
0
10
129.72001695466864
20
6.8758745230881271
30
0
10
129.91830375260781
20
7.6298408773829349
30
0
10
130.11632685489366
20
8.4166735076808958
30
0
10
130.30632126051603
20
9.2087163728339334
30
0
10
130.4792902923073
20
9.9731489934281257
30
0
10
130.6277794775302
20
10.681563385386887
30
0
10
130.7483982423305
20
11.318864739834702
30
0
10
130.84539454074726
20
11.895431300356885
30
0
10
130.92891191325378
20
12.442636193302739
30
0
10
131.01028837192149
20
12.999243153703377
30
0
10
131.09859052581891
20
13.601377183469152
30
0
10
131.1958721115243
20
14.269240854659255
30
0
10
131.29837136260696
20
15.007779551893769
30
0
10
131.3991865923378
20
15.810795367249453
30
0
10
131.49051471740074
20
16.66393623740683
30
0
10
131.56594650882138
20
17.548109551798539
30
0
10
131.62306829601403
20
18.442833720396418
30
0
10
131.66271427108742
20
19.328394015756302
30
0
10
131.68764168071925
20
20.187697323384977
30
0
10
131.70138005033789
20
21.00831707317877
30
0
10
131.70707240090084
20
21.784274269549542
30
0
10
131.70616404885337
20
22.518370911670374
30
0
10
131.69763697039048
20
23.222936755440131
30
0
10
131.67919595131727
20
23.915171160076763
30
0
10
131.64818988800042
20
24.613159390513111
30
0
10
131.60253571722845
20
25.332015530442568
30
0
10
131.54188822260528
20
26.079018234228517
30
0
10
131.46769649161027
20
26.853072513880658
30
0
10
131.38225867216801
20
27.64805403389111
30
0
10
131.28802839381626
20
28.455144028248309
30
0
10
131.18688262654291
20
29.265405221671227
30
0
10
131.07924987732278
20
30.072672099869781
30
0
10
130.96384447835106
20
30.874845600617956
30
0
10
130.83842024288916
20
31.672447313568817
30
0
10
130.70028853523485
20
32.467813245786971
30
0
10
130.54692509092718
20
33.26403766983023
30
0
10
130.37655353631902
20
34.064004882456928
30
0
10
130.18869718451649
20
34.869437036697704
30
0
10
129.98378678983002
20
35.681147778054203
30
0
10
129.76282400195083
20
36.499226677209606
30
0
10
129.52700802603883
20
37.323258080405438
30
0
10
129.27741358982706
20
38.15250735843027
30
0
10
129.0145583534098
20
38.986165738535362
30
0
10
128.73838826128778
20
39.823382966912327
30
0
10
128.44862080179144
20
40.663117822715321
30
0
10
128.14497848638925
20
41.504047469933411
30
0
10
127.82748625777779
20
42.344436407020169
30
0
10
127.49669761996408
20
43.182060520814112
30
0
10
127.15406401932421
20
44.014010452008222
30
0
10
126.80157012339066
20
44.837126858767263
30
0
10
126.44109142512593
20
45.648677135558657
30
0
10
126.07385124976362
20
46.446943142737467
30
0
10
125.69981653176794
20
47.231868810829269
30
0
10
125.31716617341145
20
48.005628768157379
30
0
10
124.92160437245639
20
48.773373415136604
30
0
10
124.50734506071075
20
49.542051805783075
30
0
10
124.06829024570085
20
50.319011022480609
30
0
10
123.59913924705666
20
51.110675253460144
30
0
10
123.09652747182894
20
51.921190757807658
30
0
10
122.56015154594772
20
52.751086682773725
30
0
10
121.99390344413328
20
53.595925232286973
30
0
10
121.40443616346781
20
54.447891373795002
30
0
10
120.79971111936646
20
55.297401807552149
30
0
10
120.18757807189385
20
56.134680524215995
30
0
10
119.5742829750464
20
56.951407980241811
30
0
10
118.96314230934064
20
57.742200398617285
30
0
10
118.35281826990695
20
58.506496266617305
30
0
10
117.73683238282565
20
59.249179330127113
30
0
10
117.10601873021085
20
59.978200580492512
30
0
10
116.45041749634993
20
60.702773616317259
30
0
10
115.76135251614708
20
61.431377154759595
30
0
10
115.03351839663534
20
62.16975956221647
30
0
10
114.26685667828836
20
62.919131041247368
30
0
10
113.46906229697738
20
63.673783335801026
30
0
10
112.6537150257232
20
64.422696306608813
30
0
10
111.83733618091466
20
65.152124755430862
30
0
10
111.0367989016986
20
65.84786221039893
30
0
10
110.26661884723545
20
66.497615165377567
30
0
10
109.53622989804666
20
67.093387728812104
30
0
10
108.84742259149613
20
67.633725545306277
30
0
10
108.1912939380972
20
68.126385126779525
30
0
10
107.55170128577545
20
68.585340596551262
30
0
10
106.90924639309033
20
69.027332093463997
30
0
10
106.24522945582549
20
69.468432766734409
30
0
10
105.54525277186974
20
69.92093848972948
30
0
10
104.80387438628789
20
70.38929983582301
30
0
10
104.02504474524214
20
70.869897432790935
30
0
10
103.21896426606605
20
71.354090461504711
30
0
10
102.39997937770855
20
71.830297545642111
30
0
10
101.58400163040817
20
72.286560307975009
30
0
10
100.78624850416648
20
72.712702120636763
30
0
10
100.01855343952471
20
73.1031536226767
30
0
10
99.288112515561721
20
73.457404441701016
30
0
10
98.597410362383442
20
73.778573801865292
30
0
10
97.943724172012892
20
74.072512910413948
30
0
10
97.318991077889393
20
74.346697889554108
30
0
10
96.709061565793192
20
74.609190868082365
30
0
10
96.09478386401301
20
74.867649452395625
30
0
10
95.456136437123718
20
75.128543661645665
30
0
10
94.775795756067424
20
75.396281345890671
30
0
10
94.042674286718565
20
75.672459325357607
30
0
10
93.25613251148944
20
75.954832087744279
30
0
10
92.424749066088935
20
76.238178110013777
30
0
10
91.563757358872436
20
76.515609664908197
30
0
10
90.692952714355755
20
76.779739759169473
30
0
10
89.834373260040579
20
77.023889907215434
30
0
10
89.010145890729873
20
77.243325562633018
30
0
10
88.240076466715152
20
77.436348470887793
30
0
10
87.537806294227863
20
77.603846018196577
30
0
10
86.906781555360112
20
77.748983304931073
30
0
10
86.336894691898621
20
77.876807641477541
30
0
10
85.799422075107742
20
77.993968517041921
30
0
10
85.247278123926691
20
78.108132697219816
30
0
10
84.630080315282314
20
78.226542251302348
30
0
10
83.905772394657589
20
78.354806712087438
30
0
10
83.055069451727022
20
78.495440406616737
30
0
10
82.09030589234645
20
78.646996830441594
30
0
10
81.044208468204047
20
78.805444426723682
30
0
10
79.961529697916248
20
78.965220655353335
30
0
10
78.889760925320346
20
79.120388427981581
30
0
10
77.869794530030049
20
79.265801785286158
30
0
10
76.927643926287004
20
79.398143969767233
30
0
10
76.063089322137301
20
79.517332978032982
30
0
10
75.252658431127315
20
79.626215994704125
30
0
10
74.46039924639895
20
79.729333721158
30
0
10
73.646252404216739
20
79.831971610350891
30
0
10
72.775387006974256
20
79.939095084262135
30
0
10
71.827197723392928
20
80.054327640853714
30
0
10
70.804240923813623
20
80.178929663161568
30
0
10
69.725857037722093
20
80.312232126531171
30
0
10
68.622031869570094
20
80.452043906654637
30
0
10
67.52721917724061
20
80.595069856644358
30
0
10
66.474061953583998
20
80.737322667326424
30
0
10
65.487431012459723
20
80.874541160742979
30
0
10
64.577672785599816
20
81.002596709752027
30
0
10
63.736147038519199
20
81.117933849112788
30
0
10
62.945244181399985
20
81.218297753474289
30
0
10
62.186464920506879
20
81.303380245676507
30
0
10
61.449845574395134
20
81.375597062970272
30
0
10
60.741433590980535
20
81.440579897152645
30
0
10
60.095177022390132
20
81.508377476835236
30
0
10
59.556823941083181
20
81.590452629565817
30
0
10
59.160394313850311
20
81.69612263664483
30
0
10
58.907263959155799
20
81.828200636020355
30
0
10
58.744435623903598
20
81.981217592262269
30
0
10
58.625124437588511
20
82.140408314996392
30
0
10
58.544414230922527
20
82.294577872089448
30
0
10
58.50974610179037
20
82.440004515958393
30
0
10
58.504333294130326
20
82.682108655821267
30
0
10
58.493371758431572
20
83.148554293475385
30
0
10
58.455007477809232
20
83.815682891126485
30
0
10
58.37692316129089
20
84.581644724564043
30
0
10
58.258315278912917
20
85.313887942745609
30
0
10
58.109193335398281
20
85.904815921567078
30
0
10
57.951992720347619
20
86.329757315885786
30
0
10
57.808097710207932
20
86.623921742869186
30
0
10
57.68415847092524
20
86.849571651284961
30
0
10
57.555854575231599
20
87.066591719541123
30
0
10
57.386551178076317
20
87.309483887512997
30
0
10
57.149662513162902
20
87.570189366107144
30
0
10
56.844670516186369
20
87.824100261588157
30
0
10
56.515273854164299
20
88.054726258650291
30
0
10
56.21041964929546
20
88.25380718066647
30
0
10
55.926961710088499
20
88.419152337407084
30
0
10
55.599865283697653
20
88.553350745124121
30
0
10
55.172585940895338
20
88.662135190915578
30
0
10
54.649226062758387
20
88.752922946022665
30
0
10
54.06789588271036
20
88.833524800543913
30
0
10
53.474506323871211
20
88.911011988433017
30
0
10
52.890978168579906
20
88.990244267709784
30
0
10
52.309340147770477
20
89.07371272172449
30
0
10
51.707053203840971
20
89.162432992497699
30
0
10
51.055435182787505
20
89.256489797486012
30
0
10
50.332696653134732
20
89.355833391738571
30
0
10
49.527274655593018
20
89.460494509594469
30
0
10
48.635317235514215
20
89.570434152239841
30
0
10
47.659816275222873
20
89.685498674132745
30
0
10
46.609063405826717
20
89.805328163651481
30
0
10
45.495399989614839
20
89.929293008806866
30
0
10
44.333830183112212
20
90.056397085522207
30
0
10
43.140769050213109
20
90.185349394011425
30
0
10
41.932789908722128
20
90.31467812522736
30
0
10
40.725372970790879
20
90.442830555769632
30
0
10
39.531655764435243
20
90.568278751302273
30
0
10
38.361177109859646
20
90.689623052778586
30
0
10
37.218636984731454
20
90.805695874950572
30
0
10
36.102618254486913
20
90.915666899657111
30
0
10
35.004412735232933
20
91.019143386208469
30
0
10
33.910298850703498
20
91.116105014672982
30
0
10
32.803711779538681
20
91.206843489788639
30
0
10
31.667472207318056
20
91.291900330161951
30
0
10
30.485948551225629
20
91.372005510045526
30
0
10
29.247344299610816
20
91.448015554427229
30
0
10
27.945706205234377
20
91.520852299119483
30
0
10
26.583605691719676
20
91.591440315494665
30
0
10
25.172485424747961
20
91.660648818480382
30
0
10
23.730036754545004
20
91.729239409561501
30
0
10
22.278322732312354
20
91.797812118954951
30
0
10
20.841605582541277
20
91.866752630620212
30
0
10
19.444284767564085
20
91.936177862356786
30
0
10
18.108824414292904
20
92.005884885105459
30
0
10
16.853599468725069
20
92.075292277630396
30
0
10
15.690977330448758
20
92.143399038179879
30
0
10
14.624804627533223
20
92.20870072082819
30
0
10
13.650016690142513
20
92.269257549273505
30
0
10
12.754731451682368
20
92.322942594336567
30
0
10
11.921698581762477
20
92.367639922851822
30
0
10
11.130012902194865
20
92.401470392076476
30
0
10
10.356709908103067
20
92.422988774387122
30
0
10
9.578423284908876
20
92.431434334807662
30
0
10
8.7729798704279833
20
92.426811452337517
30
0
10
7.9209815437692024
20
92.409724307125259
30
0
10
7.0073385425683625
20
92.381270222300444
30
0
10
6.0229297600833407
20
92.34291010417607
30
0
10
4.9659605626293706
20
92.296346872496287
30
0
10
3.8440810325306263
20
92.243405051854111
30
0
10
2.6728417663723363
20
92.185885645150677
30
0
10
1.4724235889254376
20
92.12540792089159
30
0
10
0.26490840704155555
20
92.063254949112036
30
0
10
-0.9286635143847608
20
92.000218636617291
30
0
10
-2.0911706784191004
20
91.936442510615592
30
0
10
-3.2122552094806172
20
91.871271186222543
30
0
10
-4.2913256065320322
20
91.803083340782834
30
0
10
-5.3400807313121312
20
91.729170645537366
30
0
10
-6.3778805802051561
20
91.646295400765482
30
0
10
-7.4275482597955396
20
91.551206621123399
30
0
10
-8.5109764186392933
20
91.441176402942517
30
0
10
-9.6448902494091797
20
91.314517328689874
30
0
10
-10.836372585819642
20
91.171132054534425
30
0
10
-12.078892752866528
20
91.012992524548011
30
0
10
-13.347058046150764
20
90.844798812849987
30
0
10
-14.602333670053149
20
90.673095077572455
30
0
10
-15.80053147247545
20
90.505138036188214
30
0
10
-16.89880167321769
20
90.347832325087651
30
0
10
-17.862561022880829
20
90.206681816163226
30
0
10
-18.673079092322382
20
90.084632052196071
30
0
10
-19.333304646667688
20
89.981198370152967
30
0
10
-19.87817308024459
20
89.890868827308324
30
0
10
-20.26768807867812
20
89.821947742563367
30
0
10
-20.560149396940592
20
89.768154115553145
30
0
10
-20.760926388609121
20
89.730575248530045
30
0
10
-20.863178385430693
20
89.711310179841476
30
0
0
SPLINE
5
101
100
AcDbEntity
8
0
100
AcDbSpline
70
0
71
3
72
197
73
193
74
0
42
0.000000001
43
0.0000000001
44
0.0000000001
40
0
40
0
40
0
40
0
40
0.007922445567614492
40
0.007922445567614492
40
0.007922445567614492
40
0.013872426687351809
40
0.013872426687351809
40
0.013872426687351809
40
0.020481091300421993
40
0.020481091300421993
40
0.020481091300421993
40
0.028133582774637445
40
0.028133582774637445
40
0.028133582774637445
40
0.035726721820713084
40
0.035726721820713084
40
0.035726721820713084
40
0.044522749770957326
40
0.044522749770957326
40
0.044522749770957326
40
0.053440174865347273
40
0.053440174865347273
40
0.053440174865347273
40
0.061474739332462461
40
0.061474739332462461
40
0.061474739332462461
40
0.0700589899800029
40
0.0700589899800029
40
0.0700589899800029
40
0.078626458225691184
40
0.078626458225691184
40
0.078626458225691184
40
0.08678485717076781
40
0.08678485717076781
40
0.08678485717076781
40
0.095337553465067337
40
0.095337553465067337
40
0.095337553465067337
40
0.10846447294529767
40
0.10846447294529767
40
0.10846447294529767
40
0.11636932360035764
40
0.11636932360035764
40
0.11636932360035764
40
0.12411670204919259
40
0.12411670204919259
40
0.12411670204919259
40
0.13329794259684921
40
0.13329794259684921
40
0.13329794259684921
40
0.14173269108771419
40
0.14173269108771419
40
0.14173269108771419
40
0.14916816784401526
40
0.14916816784401526
40
0.14916816784401526
40
0.15697869651588697
40
0.15697869651588697
40
0.15697869651588697
40
0.16369519067714353
40
0.16369519067714353
40
0.16369519067714353
40
0.16916827236893392
40
0.16916827236893392
40
0.16916827236893392
40
0.17596792701896583
40
0.17596792701896583
40
0.17596792701896583
40
0.18331799722182937
40
0.18331799722182937
40
0.18331799722182937
40
0.1899716928196292
40
0.1899716928196292
40
0.1899716928196292
40
0.19578038634390402
40
0.19578038634390402
40
0.19578038634390402
40
0.20138404716848735
40
0.20138404716848735
40
0.20138404716848735
40
0.20762323429998353
40
0.20762323429998353
40
0.20762323429998353
40
0.21242661255312723
40
0.21242661255312723
40
0.21242661255312723
40
0.21823265043097931
40
0.21823265043097931
40
0.21823265043097931
40
0.22482103039596868
40
0.22482103039596868
40
0.22482103039596868
40
0.23150960041870461
40
0.23150960041870461
40
0.23150960041870461
40
0.23996273616791372
40
0.23996273616791372
40
0.23996273616791372
40
0.24655185489227444
40
0.24655185489227444
40
0.24655185489227444
40
0.25243816852592854
40
0.25243816852592854
40
0.25243816852592854
40
0.25701826483695478
40
0.25701826483695478
40
0.25701826483695478
40
0.26180244534092695
40
0.26180244534092695
40
0.26180244534092695
40
0.26722937400655561
40
0.26722937400655561
40
0.26722937400655561
40
0.27176421912581133
40
0.27176421912581133
40
0.27176421912581133
40
0.27797029101195209
40
0.27797029101195209
40
0.27797029101195209
40
0.28597915716267608
40
0.28597915716267608
40
0.28597915716267608
40
0.29350630805072736
40
0.29350630805072736
40
0.29350630805072736
40
0.30169839516575614
40
0.30169839516575614
40
0.30169839516575614
40
0.30969270289412781
40
0.30969270289412781
40
0.30969270289412781
40
0.32047875441140705
40
0.32047875441140705
40
0.32047875441140705
40
0.32930596362742809
40
0.32930596362742809
40
0.32930596362742809
40
0.33874486364325801
40
0.33874486364325801
40
0.33874486364325801
40
0.34888836331406153
40
0.34888836331406153
40
0.34888836331406153
40
0.36708214097968345
40
0.36708214097968345
40
0.36708214097968345
40
0.37730578168292495
40
0.37730578168292495
40
0.37730578168292495
40
0.38637634263135118
40
0.38637634263135118
40
0.38637634263135118
40
0.39596421227773632
40
0.39596421227773632
40
0.39596421227773632
40
0.40256065723404189
40
0.40256065723404189
40
0.40256065723404189
40
0.40939544637262976
40
0.40939544637262976
40
0.40939544637262976
40
0.42007908079298284
40
0.42007908079298284
40
0.42007908079298284
40
0.4293626354556474
40
0.4293626354556474
40
0.4293626354556474
40
0.43707711692887818
40
0.43707711692887818
40
0.43707711692887818
40
0.44308973110791966
40
0.44308973110791966
40
0.44308973110791966
40
0.44889245194641147
40
0.44889245194641147
40
0.44889245194641147
40
0.45581475207975797
40
0.45581475207975797
40
0.45581475207975797
40
0.46249311659064107
40
0.46249311659064107
40
0.46249311659064107
40
0.4676359138657521
40
0.4676359138657521
40
0.4676359138657521
40
0.47285161041775742
40
0.47285161041775742
40
0.47285161041775742
40
0.47666247275790646
40
0.47666247275790646
40
0.47666247275790646
40
0.47860378414925919
40
0.47860378414925919
40
0.47860378414925919
40
0.47860378414925919
10
-21.0483286089617
20
90.694020409118849
30
0
10
-22.001975523368522
20
90.514345939360084
30
0
10
-23.192762397402706
20
90.288036965154447
30
0
10
-24.388514282361335
20
90.053038551431115
30
0
10
-25.286557832004352
20
89.876548083571336
30
0
10
-26.262955392136945
20
89.670679619002001
30
0
10
-27.40272494542041
20
89.408000909620213
30
0
10
-28.66867093117369
20
89.116242758398556
30
0
10
-30.06764917039154
20
88.775246203257637
30
0
10
-31.294534175609069
20
88.469436214966663
30
0
10
-32.715203492629868
20
88.115324081102557
30
0
10
-33.951336667051166
20
87.79381958690719
30
0
10
-35.441270975797664
20
87.37062229926309
30
0
10
-36.919649411624739
20
86.950707313427301
30
0
10
-38.632845163537567
20
86.436799284903287
30
0
10
-40.170709650824818
20
85.951838282734499
30
0
10
-41.952199352486204
20
85.390050792215703
30
0
10
-43.44237701323047
20
84.887365692905959
30
0
10
-45.089970932378485
20
84.268969650629671
30
0
10
-46.760303887558194
20
83.642038902244224
30
0
10
-48.647691931103779
20
82.861167482134292
30
0
10
-50.427646251099503
20
81.990819150224823
30
0
10
-52.031377998902222
20
81.20663877219485
30
0
10
-53.49564038305347
20
80.390092642912109
30
0
10
-54.830587482219386
20
79.606703645092807
30
0
10
-56.256865228493012
20
78.769718947374528
30
0
10
-57.602754869104366
20
77.922969291968656
30
0
10
-59.040174232975453
20
76.920236395434401
30
0
10
-60.474783409867491
20
75.919463864121411
30
0
10
-61.945343339319265
20
74.820010552469512
30
0
10
-63.399022596820515
20
73.646832871515755
30
0
10
-64.783293303262482
20
72.529670685417514
30
0
10
-66.199902871932096
20
71.285312069864503
30
0
10
-67.732412084619327
20
69.767553116335648
30
0
10
-69.338987829758608
20
68.176440513866055
30
0
10
-71.047344848190093
20
66.314617046696014
30
0
10
-72.516991035210395
20
64.560348454619401
30
0
10
-74.772645450801122
20
61.867847544674149
30
0
10
-76.373943682147285
20
59.508454306370865
30
0
10
-77.874507709989928
20
57.064769748977952
30
0
10
-78.778126762145746
20
55.59321646464803
30
0
10
-79.610571154086315
20
54.158344223401727
30
0
10
-80.345185758209652
20
52.765671433292781
30
0
10
-81.065166134883981
20
51.400742020810796
30
0
10
-81.721578265110338
20
50.010725440373719
30
0
10
-82.402545636670297
20
48.383565880691293
30
0
10
-83.209544453713718
20
46.455256398261149
30
0
10
-84.020073037809752
20
44.233395280065338
30
0
10
-84.643964212185296
20
42.15091715647057
30
0
10
-85.217129147164727
20
40.237757478421017
30
0
10
-85.648415680596969
20
38.474061412708977
30
0
10
-86.038753259576595
20
36.699499300608537
30
0
10
-86.38284721789168
20
35.135171051648243
30
0
10
-86.695200893072979
20
33.493831595208931
30
0
10
-86.928945899028847
20
31.703727167051568
30
0
10
-87.174481206415564
20
29.823328314359433
30
0
10
-87.324142432815336
20
27.827090406212498
30
0
10
-87.403818808470689
20
26.22934419855293
30
0
10
-87.472334773824798
20
24.855397116896082
30
0
10
-87.495647810770862
20
23.810775183170556
30
0
10
-87.484345605747379
20
22.646487246615671
30
0
10
-87.475135757587651
20
21.69774183918442
30
0
10
-87.442022181255226
20
20.602506618945512
30
0
10
-87.376905155292008
20
19.356745651510256
30
0
10
-87.296004976321314
20
17.809035452381409
30
0
10
-87.160793381006471
20
16.124011847381901
30
0
10
-86.972341155491961
20
14.670549372941906
30
0
10
-86.768634179372114
20
13.099432636254168
30
0
10
-86.514497787990564
20
11.742283352234148
30
0
10
-86.248678490462481
20
10.31589263704439
30
0
10
-86.008043960321018
20
9.0246437971757469
30
0
10
-85.747248813578594
20
7.6901032820443493
30
0
10
-85.454552966964897
20
6.5722252965442154
30
0
10
-85.199028733278993
20
5.5963149141318924
30
0
10
-84.934415951807239
20
4.8236356723384342
30
0
10
-84.691328763402453
20
4.0490666318552702
30
0
10
-84.45682195925977
20
3.3018379874188293
30
0
10
-84.223786284232474
20
2.4700811310759527
30
0
10
-83.873865300579368
20
1.4391870129739928
30
0
10
-83.484258833201622
20
0.29137640898813988
30
0
10
-82.921934432287429
20
-1.077574629378679
30
0
10
-82.39286996790841
20
-2.2719256874589009
30
0
10
-81.985557815035094
20
-3.1914236570006431
30
0
10
-81.631569314218936
20
-3.9703673416165799
30
0
10
-81.342958105517425
20
-4.6231087756617733
30
0
10
-80.994102046014532
20
-5.4121037893335604
30
0
10
-80.689258351982176
20
-6.1041584709952312
30
0
10
-80.197309908375928
20
-7.0356484247305353
30
0
10
-79.639073235131519
20
-8.0926531976737159
30
0
10
-78.842273740072457
20
-9.4549108194025795
30
0
10
-77.987291775313281
20
-10.842106985756292
30
0
10
-77.119308026674503
20
-12.250398362882811
30
0
10
-76.235155285844158
20
-13.616278000305538
30
0
10
-75.439808636285349
20
-14.767322082540037
30
0
10
-74.434635157717338
20
-16.222032408869559
30
0
10
-73.54878399626142
20
-17.359103360337372
30
0
10
-72.599468569363538
20
-18.499365469589296
30
0
10
-71.859488490931398
20
-19.388186214654684
30
0
10
-71.071301988238162
20
-20.303226739792088
30
0
10
-70.358028691437411
20
-21.093193509365552
30
0
10
-69.72083417315423
20
-21.798901261857921
30
0
10
-69.169486097811713
20
-22.364732519826678
30
0
10
-68.476458345112903
20
-23.030118974887834
30
0
10
-67.937218669634689
20
-23.547851164829027
30
0
10
-67.271480713792911
20
-24.17202050146556
30
0
10
-66.534100427285111
20
-24.863528644430389
30
0
10
-65.763863263880665
20
-25.585849650638465
30
0
10
-64.961830945290842
20
-26.336234051925373
30
0
10
-64.336661926056919
20
-26.901215573770326
30
0
10
-63.627502297040699
20
-27.542101596759039
30
0
10
-63.156952663077092
20
-27.928204756353846
30
0
10
-62.593422318687438
20
-28.358348899497638
30
0
10
-62.122525612785758
20
-28.717785551109884
30
0
10
-61.533651266262517
20
-29.158924760504767
30
0
10
-60.790588769798831
20
-29.709299830002095
30
0
10
-59.773685403161764
20
-30.462504659674586
30
0
10
-58.537620652789769
20
-31.353436731453538
30
0
10
-57.409477929605607
20
-32.094108537785509
30
0
10
-55.953622400591797
20
-33.049937195164546
30
0
10
-54.676239562908833
20
-33.782519076740854
30
0
10
-53.324806378098231
20
-34.523584861220733
30
0
10
-52.05465885587131
20
-35.220077207674535
30
0
10
-50.65722019624323
20
-35.942904239970296
30
0
10
-49.105264429662085
20
-36.653526465542157
30
0
10
-47.416211423074159
20
-37.426923898959018
30
0
10
-45.617130608764597
20
-38.154642689628837
30
0
10
-43.923826556129264
20
-38.766597105411385
30
0
10
-42.271403494168432
20
-39.363777268025466
30
0
10
-40.674018277514172
20
-39.86875817563633
30
0
10
-38.859436040678567
20
-40.411145675474572
30
0
10
-36.411171831460393
20
-41.142943814145319
30
0
10
-33.571576452739301
20
-41.957088547969192
30
0
10
-31.199981899784525
20
-42.619147460574318
30
0
10
-29.259089881888023
20
-43.160970622232178
30
0
10
-27.571190443106723
20
-43.60453117767176
30
0
10
-25.738776144119008
20
-44.025341118039726
30
0
10
-23.779382758004335
20
-44.475311528346936
30
0
10
-21.698141490778742
20
-44.893259321267927
30
0
10
-19.779787142773131
20
-45.245774964106346
30
0
10
-17.718230535028038
20
-45.624605368188142
30
0
10
-15.782813321036375
20
-45.951657337366669
30
0
10
-13.624497895335452
20
-46.278862921290916
30
0
10
-9.7532589480408376
20
-46.865751651814847
30
0
10
-5.2471597118539934
20
-47.322162591302863
30
0
10
-1.2948982279055228
20
-47.668476902168877
30
0
10
0.92599850501979031
20
-47.863081516436253
30
0
10
2.9609904943712539
20
-47.990378294101674
30
0
10
4.7989820487094557
20
-48.059586005669999
30
0
10
6.4296745681591503
20
-48.12098808190715
30
0
10
7.9469402899079356
20
-48.157055749588444
30
0
10
9.9511225481708312
20
-48.131591291498104
30
0
10
12.069606548121952
20
-48.104674554355363
30
0
10
14.754190459753985
20
-47.99707641901535
30
0
10
17.027246606201782
20
-47.891080407535547
30
0
10
18.591107015827614
20
-47.81815525511881
30
0
10
19.924641333791563
20
-47.750237764040534
30
0
10
21.226597724538824
20
-47.688753072221893
30
0
10
22.575596686455157
20
-47.625046802160512
30
0
10
23.965284935603684
20
-47.564869544938524
30
0
10
25.530732278503798
20
-47.501194378536553
30
0
10
27.977723220979804
20
-47.401662090751245
30
0
10
30.732229340748972
20
-47.30126099863292
30
0
10
33.402710955537628
20
-47.157676526246192
30
0
10
35.723228587561941
20
-47.032908657404413
30
0
10
38.028100110675382
20
-46.862398623754885
30
0
10
40.109257188021104
20
-46.684426014786887
30
0
10
41.838664543226855
20
-46.536533699341405
30
0
10
43.365246687984076
20
-46.398052884762393
30
0
10
44.907040399161467
20
-46.250060941140575
30
0
10
46.108703888943609
20
-46.134717030899552
30
0
10
47.377284772549508
20
-46.002833226126683
30
0
10
48.682574298043598
20
-45.860838622105035
30
0
10
49.942297690283127
20
-45.72380088391423
30
0
10
51.183202316646408
20
-45.590005639121323
30
0
10
52.151762394931076
20
-45.482140470824078
30
0
10
53.307196844679076
20
-45.35346375352718
30
0
10
54.118023575057236
20
-45.263028035424149
30
0
10
54.909524702346317
20
-44.948746422921893
30
0
10
55.673134042737047
20
-44.64553981140164
30
0
10
56.33288948860794
20
-44.14924860672177
30
0
10
56.879244519576126
20
-43.511451738265308
30
0
10
57.299975247874578
20
-43.020304543195763
30
0
10
57.680761602750856
20
-42.372238042708339
30
0
10
57.888687740429759
20
-41.648670814686312
30
0
10
58.099561236185096
20
-40.914847003547052
30
0
10
58.156838635827086
20
-40.157671165261476
30
0
10
58.21632472850419
20
-39.59313967827655
30
0
10
58.259788397850265
20
-39.180663269396511
30
0
10
58.298373257193823
20
-38.909236057851416
30
0
10
58.333844479231246
20
-38.657643925273881
30
0
10
58.351914060669813
20
-38.529479056183277
30
0
10
58.367873583816404
20
-38.379566502107565
30
0
10
58.376783966557952
20
-38.288872472339321
30
0
0
SPLINE
5
102
100
AcDbEntity
8
0
100
AcDbSpline
70
0
71
3
72
170
73
166
74
0
42
0.000000001
43
0.0000000001
44
0.0000000001
40
0.48867357359211749
40
0.48867357359211749
40
0.48867357359211749
40
0.48867357359211749
40
0.48927956379056781
40
0.48927956379056781
40
0.48927956379056781
40
0.49216766106050108
40
0.49216766106050108
40
0.49216766106050108
40
0.49657778635791644
40
0.49657778635791644
40
0.49657778635791644
40
0.50091482291078693
40
0.50091482291078693
40
0.50091482291078693
40
0.50775882890990032
40
0.50775882890990032
40
0.50775882890990032
40
0.51545009720818313
40
0.51545009720818313
40
0.51545009720818313
40
0.52449029815458759
40
0.52449029815458759
40
0.52449029815458759
40
0.53235015017053244
40
0.53235015017053244
40
0.53235015017053244
40
0.53920708265283379
40
0.53920708265283379
40
0.53920708265283379
40
0.5469524287867501
40
0.5469524287867501
40
0.5469524287867501
40
0.55652242497389481
40
0.55652242497389481
40
0.55652242497389481
40
0.56548335415617157
40
0.56548335415617157
40
0.56548335415617157
40
0.57301184200776545
40
0.57301184200776545
40
0.57301184200776545
40
0.57987497417948819
40
0.57987497417948819
40
0.57987497417948819
40
0.58643899110259867
40
0.58643899110259867
40
0.58643899110259867
40
0.5935762288692934
40
0.5935762288692934
40
0.5935762288692934
40
0.60167544416547569
40
0.60167544416547569
40
0.60167544416547569
40
0.6095091270191545
40
0.6095091270191545
40
0.6095091270191545
40
0.61576854866260877
40
0.61576854866260877
40
0.61576854866260877
40
0.62191318185708899
40
0.62191318185708899
40
0.62191318185708899
40
0.62855934188214257
40
0.62855934188214257
40
0.62855934188214257
40
0.63582873193134137
40
0.63582873193134137
40
0.63582873193134137
40
0.64291124024071611
40
0.64291124024071611
40
0.64291124024071611
40
0.65004328250061172
40
0.65004328250061172
40
0.65004328250061172
40
0.65689939539668285
40
0.65689939539668285
40
0.65689939539668285
40
0.66244050374168506
40
0.66244050374168506
40
0.66244050374168506
40
0.66772553264561008
40
0.66772553264561008
40
0.66772553264561008
40
0.67367573642380307
40
0.67367573642380307
40
0.67367573642380307
40
0.68073466722338383
40
0.68073466722338383
40
0.68073466722338383
40
0.68717157108202742
40
0.68717157108202742
40
0.68717157108202742
40
0.69482022419667833
40
0.69482022419667833
40
0.69482022419667833
40
0.70356679354214768
40
0.70356679354214768
40
0.70356679354214768
40
0.71485325155222856
40
0.71485325155222856
40
0.71485325155222856
40
0.72705440895180451
40
0.72705440895180451
40
0.72705440895180451
40
0.73568583462734194
40
0.73568583462734194
40
0.73568583462734194
40
0.74348567687563205
40
0.74348567687563205
40
0.74348567687563205
40
0.75152375140909966
40
0.75152375140909966
40
0.75152375140909966
40
0.75901813727883127
40
0.75901813727883127
40
0.75901813727883127
40
0.76701551681423963
40
0.76701551681423963
40
0.76701551681423963
40
0.77323520236125065
40
0.77323520236125065
40
0.77323520236125065
40
0.77972453177329182
40
0.77972453177329182
40
0.77972453177329182
40
0.78743134286633309
40
0.78743134286633309
40
0.78743134286633309
40
0.79422040434421048
40
0.79422040434421048
40
0.79422040434421048
40
0.8009022298833145
40
0.8009022298833145
40
0.8009022298833145
40
0.80882402772614037
40
0.80882402772614037
40
0.80882402772614037
40
0.81445304734298185
40
0.81445304734298185
40
0.81445304734298185
40
0.82039867867811833
40
0.82039867867811833
40
0.82039867867811833
40
0.82561151881944406
40
0.82561151881944406
40
0.82561151881944406
40
0.8309446022367184
40
0.8309446022367184
40
0.8309446022367184
40
0.837696127437494
40
0.837696127437494
40
0.837696127437494
40
0.84335065966427258
40
0.84335065966427258
40
0.84335065966427258
40
0.84913050996878203
40
0.84913050996878203
40
0.84913050996878203
40
0.85464087560948165
40
0.85464087560948165
40
0.85464087560948165
40
0.8591833482466853
40
0.8591833482466853
40
0.8591833482466853
40
0.86183119371346661
40
0.86183119371346661
40
0.86183119371346661
40
0.86183119371346661
10
58.376783966557824
20
-38.288872472339193
30
0
10
58.421402383031079
20
-38.281342686437647
30
0
10
58.460304715874884
20
-38.274191360393935
30
0
10
58.494781506810924
20
-38.267914154917023
30
0
10
58.659094933056224
20
-38.237997532425389
30
0
10
58.596269908336453
20
-38.244561261279181
30
0
10
58.801066614267377
20
-38.242767823964243
30
0
10
59.113791238557539
20
-38.240029244708531
30
0
10
59.833238245520455
20
-38.194507943785553
30
0
10
60.773324314688189
20
-38.094238151710293
30
0
10
61.697830393282899
20
-37.995630124941975
30
0
10
62.758060041690491
20
-37.869418861952326
30
0
10
63.611999821112192
20
-37.783252659705042
30
0
10
64.959548752738229
20
-37.647279167687564
30
0
10
65.88249289011577
20
-37.597182010185371
30
0
10
67.067228382558781
20
-37.496578772386485
30
0
10
68.398629689930203
20
-37.383521230694171
30
0
10
69.998789870972203
20
-37.211404634088538
30
0
10
71.379813385774597
20
-37.064481046119141
30
0
10
73.003047630289359
20
-36.891789273124218
30
0
10
74.368940680500842
20
-36.743491254589493
30
0
10
75.976049920538273
20
-36.562680906702298
30
0
10
77.373324259354348
20
-36.405478363775401
30
0
10
78.978729835985249
20
-36.234072361277313
30
0
10
80.545486531219979
20
-36.050791200115349
30
0
10
81.912324590463868
20
-35.890896771465052
30
0
10
83.174671580830264
20
-35.719584990931757
30
0
10
84.302329717241236
20
-35.519750363070315
30
0
10
85.576092089814381
20
-35.29402430169749
30
0
10
86.771350171776959
20
-35.032179268723567
30
0
10
88.114868700490021
20
-34.713610053170783
30
0
10
89.774893568951398
20
-34.319992243783048
30
0
10
91.601221959133426
20
-33.835355804412202
30
0
10
93.234245762038185
20
-33.303728733119989
30
0
10
94.76333839328278
20
-32.80593621115117
30
0
10
96.086990794261055
20
-32.287224989638929
30
0
10
97.440182396974905
20
-31.705811080345331
30
0
10
98.577060764684731
20
-31.217338572212814
30
0
10
99.795162808717421
20
-30.651036320452526
30
0
10
101.06350513901762
20
-30.009640495275761
30
0
10
102.21975340871474
20
-29.424930204264616
30
0
10
103.35188703886745
20
-28.816030910542693
30
0
10
104.4218764175853
20
-28.177535865134619
30
0
10
105.44523254911807
20
-27.56686828967268
30
0
10
106.46942209654669
20
-26.888377127266235
30
0
10
107.6076494966007
20
-26.080101300295855
30
0
10
108.84527573704349
20
-25.201240562163306
30
0
10
110.17118106420071
20
-24.208766643895935
30
0
10
111.28195246330105
20
-23.332628427093912
30
0
10
112.54243684118404
20
-22.33840176979999
30
0
10
113.5394959281532
20
-21.477689475855229
30
0
10
114.69822534031402
20
-20.383416842105717
30
0
10
115.81896585604972
20
-19.325019891935227
30
0
10
117.08941976534341
20
-18.036643061738946
30
0
10
118.10197938204183
20
-16.880168100209719
30
0
10
118.91105446185227
20
-15.956098982335039
30
0
10
119.53458657789662
20
-15.156964471428278
30
0
10
120.09609528888728
20
-14.447414269925991
30
0
10
120.6473067683298
20
-13.750876159913794
30
0
10
121.18822858781078
20
-13.076231997776249
30
0
10
121.77230159428638
20
-12.252237079216195
30
0
10
122.40404681722956
20
-11.360987444738321
30
0
10
123.0484177136377
20
-10.340204364752584
30
0
10
123.61708001890935
20
-9.4263393454004802
30
0
10
124.23906746545188
20
-8.4267785083236628
30
0
10
124.79124052703936
20
-7.5434328477520607
30
0
10
125.45669231387512
20
-6.3686501735434495
30
0
10
126.10503664233389
20
-5.2240688544121427
30
0
10
126.86039619658258
20
-3.7733105788408898
30
0
10
127.56314904838607
20
-2.2071636575185933
30
0
10
128.27081684323926
20
-0.63006335065539787
30
0
10
128.89439723073059
20
1.0003105488906496
30
0
10
129.36436439278049
20
2.3484050372388388
30
0
10
129.81614914153033
20
3.6443435173932892
30
0
10
130.13631879041299
20
4.6649993006989909
30
0
10
130.45387588448187
20
5.784519074526516
30
0
10
130.71052543075294
20
6.6893146132209722
30
0
10
130.97846729226274
20
7.7173434721832184
30
0
10
131.22173056824013
20
8.7440575225268837
30
0
10
131.45375155840244
20
9.723322516871626
30
0
10
131.64274775882421
20
10.631705827388846
30
0
10
131.77094941445202
20
11.378399031898564
30
0
10
131.91528655802389
20
12.219071203686516
30
0
10
132.00940233140028
20
12.908523051774614
30
0
10
132.144978702598
20
13.850369694714921
30
0
10
132.30581760123374
20
14.967714667117214
30
0
10
132.49500010108156
20
16.444681719020732
30
0
10
132.59104326447971
20
17.944353988261639
30
0
10
132.67862318651419
20
19.311876420575459
30
0
10
132.70199522394446
20
20.638618524253157
30
0
10
132.70544420051462
20
21.786063159290254
30
0
10
132.70954244805179
20
23.149514622042933
30
0
10
132.68160374565559
20
24.338032993440727
30
0
10
132.57482287408342
20
25.693723969728897
30
0
10
132.45271427744871
20
27.244015891376954
30
0
10
132.25038645149237
20
28.952400467241276
30
0
10
132.01054679287412
20
30.613460412182913
30
0
10
131.70106085281819
20
32.756870311576449
30
0
10
131.25604945289078
20
34.896160856932269
30
0
10
130.62911846580747
20
37.100856043395979
30
0
10
129.95137850121955
20
39.484228485317502
30
0
10
129.09807427689748
20
41.953508155612028
30
0
10
128.09542724070695
20
44.346949630555066
30
0
10
127.38612786129094
20
46.040134262402987
30
0
10
126.64283503897288
20
47.643092789508003
30
0
10
125.80972234307707
20
49.224412926816186
30
0
10
125.05687480116384
20
50.653382841949046
30
0
10
124.17998871862592
20
52.122784461249701
30
0
10
123.13890416473249
20
53.680060680163244
30
0
10
122.06602153794964
20
55.284901126720712
30
0
10
120.87311524656015
20
56.926727383552553
30
0
10
119.70825171359905
20
58.406039208430009
30
0
10
118.62217857938751
20
59.785291614106043
30
0
10
117.52770929216199
20
61.049607224676933
30
0
10
116.24312690817254
20
62.362932679054651
30
0
10
114.87232841342794
20
63.764403365877904
30
0
10
113.25504747358121
20
65.25595381156073
30
0
10
111.76593139665491
20
66.534934254774186
30
0
10
110.60782283115871
20
67.52961709336455
30
0
10
109.57369239639262
20
68.353799705974239
30
0
10
108.61158317954725
20
69.052332362617946
30
0
10
107.60776335758362
20
69.781148711895852
30
0
10
106.62432591473976
20
70.425699691615904
30
0
10
105.47149193457111
20
71.14841461058397
30
0
10
104.10237146885504
20
72.006720145863852
30
0
10
102.52202052929391
20
72.936678097828903
30
0
10
101.09554672320382
20
73.673884112009574
30
0
10
99.838941591819221
20
74.323301476949624
30
0
10
98.742404677787562
20
74.816516092159844
30
0
10
97.749983949532975
20
75.248398147032447
30
0
10
96.773238903226343
20
75.673458452279633
30
0
10
95.832012669980045
20
76.068728932429025
30
0
10
94.655763334129034
20
76.508335406740713
30
0
10
93.261232842897513
20
77.029521361015355
30
0
10
91.527220396301757
20
77.595265372890154
30
0
10
89.958062677585957
20
78.023078850753976
30
0
10
88.843060785866555
20
78.327071770924931
30
0
10
87.862601878585338
20
78.556775915082881
30
0
10
87.072920221265974
20
78.735838796104758
30
0
10
86.238821865578416
20
78.924973307766123
30
0
10
85.582083516608677
20
79.069452535232301
30
0
10
84.588401059056721
20
79.248094052108883
30
0
10
83.71718864939271
20
79.404718238438491
30
0
10
82.550858977598395
20
79.58979608425652
30
0
10
81.2594877117767
20
79.783322089160265
30
0
10
79.938328708894502
20
79.981312109874963
30
0
10
78.556246044001753
20
80.179363245034892
30
0
10
77.396218304735982
20
80.341834144795172
30
0
10
75.92765764245884
20
80.547517478112496
30
0
10
74.794053563423233
20
80.697325736102925
30
0
10
73.423269204516316
20
80.866656083407776
30
0
10
72.275210935769451
20
81.008473506483796
30
0
10
70.908085722717473
20
81.171429316096507
30
0
10
69.467620437026397
20
81.353417880536071
30
0
10
67.995230964965671
20
81.539439750676223
30
0
10
66.519908617015233
20
81.740337628838674
30
0
10
65.279471755525734
20
81.913682557148263
30
0
10
64.096870078856682
20
82.078945303867044
30
0
10
63.077436546987144
20
82.214938392820343
30
0
10
62.108977119396755
20
82.314241276189009
30
0
10
61.310627111989135
20
82.396101657134665
30
0
10
60.534151188134445
20
82.457316548155646
30
0
10
60.031312264798089
20
82.534292731496905
30
0
10
59.738203231455181
20
82.57916279553227
30
0
10
59.564473541230967
20
82.629541756019037
30
0
10
59.506273493688681
20
82.654748155327709
30
0
0
SPLINE
5
103
100
AcDbEntity
8
0
100
AcDbSpline
70
0
71
3
72
71
73
67
74
0
42
0.000000001
43
0.0000000001
44
0.0000000001
40
0.86946169209343638
40
0.86946169209343638
40
0.86946169209343638
40
0.86946169209343638
40
0.86959818101985054
40
0.86959818101985054
40
0.86959818101985054
40
0.87468743374440139
40
0.87468743374440139
40
0.87468743374440139
40
0.8788958077365554
40
0.8788958077365554
40
0.8788958077365554
40
0.88320286884351307
40
0.88320286884351307
40
0.88320286884351307
40
0.88749114465681722
40
0.88749114465681722
40
0.88749114465681722
40
0.89172620419446991
40
0.89172620419446991
40
0.89172620419446991
40
0.89849331643231556
40
0.89849331643231556
40
0.89849331643231556
40
0.9058238703990017
40
0.9058238703990017
40
0.9058238703990017
40
0.91350299254607037
40
0.91350299254607037
40
0.91350299254607037
40
0.92112967507257781
40
0.92112967507257781
40
0.92112967507257781
40
0.92944243728654452
40
0.92944243728654452
40
0.92944243728654452
40
0.93606693669780727
40
0.93606693669780727
40
0.93606693669780727
40
0.94405856961058132
40
0.94405856961058132
40
0.94405856961058132
40
0.95062240811502219
40
0.95062240811502219
40
0.95062240811502219
40
0.95927975346782535
40
0.95927975346782535
40
0.95927975346782535
40
0.9657157962787899
40
0.9657157962787899
40
0.9657157962787899
40
0.97327031465075142
40
0.97327031465075142
40
0.97327031465075142
40
0.98049034026364423
40
0.98049034026364423
40
0.98049034026364423
40
0.98599356882328371
40
0.98599356882328371
40
0.98599356882328371
40
0.99299678441164185
40
0.99299678441164185
40
0.99299678441164185
40
0.99853333357435958
40
0.99853333357435958
40
0.99853333357435958
40
1
40
1
40
1
40
1
10
59.506273493688639
20
82.654748155327695
30
0
10
59.505986277211768
20
82.662034542356807
30
0
10
59.505675414792591
20
82.67038973246585
30
0
10
59.505374340456008
20
82.678932844289022
30
0
10
59.494148203449875
20
82.997479236765685
30
0
10
59.466768310018665
20
83.99208953946605
30
0
10
59.326818727069465
20
84.92760338437769
30
0
10
59.211092466855462
20
85.701192818290821
30
0
10
59.017821846270877
20
86.364430474047964
30
0
10
58.838263522090486
20
86.776315749988683
30
0
10
58.654494523434543
20
87.197859808534858
30
0
10
58.548099353830693
20
87.380567005803599
30
0
10
58.332381507965437
20
87.694962581614419
30
0
10
58.117604517820652
20
88.007986917717176
30
0
10
57.730202456383815
20
88.403231307681267
30
0
10
57.357222634212341
20
88.679771785656271
30
0
10
56.988871384897017
20
88.952880475438221
30
0
10
56.703548083472278
20
89.155210595697071
30
0
10
56.259956648254914
20
89.354320553688922
30
0
10
55.551151257640079
20
89.672474152575589
30
0
10
54.565442175490176
20
89.774820214993255
30
0
10
53.641335681094588
20
89.89831721810306
30
0
10
52.640286446201358
20
90.03209680002837
30
0
10
51.715671089703086
20
90.179526539998406
30
0
10
50.38486035166823
20
90.356295684693677
30
0
10
48.990769501448341
20
90.541470210400306
30
0
10
47.14863803680047
20
90.753769537264162
30
0
10
45.074029442917691
20
90.981131703458431
30
0
10
43.01358805270646
20
91.206941246124018
30
0
10
40.784315810731151
20
91.444755922917437
30
0
10
38.713110218969362
20
91.65811198612495
30
0
10
36.455583500017489
20
91.890661094362741
30
0
10
34.411457083259428
20
92.090133149964231
30
0
10
32.179469380168719
20
92.255296842458634
30
0
10
30.400782483504255
20
92.386916965292514
30
0
10
28.440564859133055
20
92.499244999616153
30
0
10
26.277785240951133
20
92.607084766886061
30
0
10
23.668661183916182
20
92.737180005773823
30
0
10
20.81946289094326
20
92.863956776701414
30
0
10
18.38873451220871
20
92.993339522096008
30
0
10
16.392282885824297
20
93.099606596084584
30
0
10
14.718212324816943
20
93.207228304705978
30
0
10
13.328577798263652
20
93.289903136799609
30
0
10
11.495725572784385
20
93.398946735744858
30
0
10
10.076703158748938
20
93.451114576709415
30
0
10
8.3241304565727567
20
93.416655654704996
30
0
10
7.0212330346879392
20
93.39103820637618
30
0
10
5.5051584804742397
20
93.323923751719946
30
0
10
3.7825134386635364
20
93.241045559048246
30
0
10
1.7605017773121003
20
93.143764535978164
30
0
10
-0.46892189229457815
20
93.030770178915361
30
0
10
-2.4668185862266077
20
92.915686248772374
30
0
10
-4.3762540514497488
20
92.805697910356457
30
0
10
-6.0659302288747359
20
92.689985275124258
30
0
10
-7.9040370215613596
20
92.506378372382983
30
0
10
-9.3050738515577844
20
92.366430011381539
30
0
10
-10.840291111847948
20
92.182107265940516
30
0
10
-12.460291402354887
20
91.970049154475802
30
0
10
-14.521846935561044
20
91.700191441725337
30
0
10
-16.626115394602717
20
91.400694933307676
30
0
10
-18.057496715608711
20
91.187780716289609
30
0
10
-19.189107324243921
20
91.019456606444749
30
0
10
-19.883679735977957
20
90.906995028338699
30
0
10
-20.530156926687098
20
90.789951731743997
30
0
10
-20.701412769033851
20
90.758946232033523
30
0
10
-20.87178187230872
20
90.727283182600914
30
0
10
-21.048328608961562
20
90.694020409118892
30
0
0
SPLINE
5
104
100
AcDbEntity
8
0
100
AcDbSpline
70
0
71
3
72
197
73
193
74
0
42
0.000000001
43
0.0000000001
44
0.0000000001
40
0
40
0
40
0
40
0
40
0.0076524714175654224
40
0.0076524714175654224
40
0.0076524714175654224
40
0.013901365754772027
40
0.013901365754772027
40
0.013901365754772027
40
0.020406831511173985
40
0.020406831511173985
40
0.020406831511173985
40
0.028059903139992938
40
0.028059903139992938
40
0.028059903139992938
40
0.035884754378006159
40
0.035884754378006159
40
0.035884754378006159
40
0.044475941723840888
40
0.044475941723840888
40
0.044475941723840888
40
0.052436518495582521
40
0.052436518495582521
40
0.052436518495582521
40
0.05996250294636047
40
0.05996250294636047
40
0.05996250294636047
40
0.06857042132823217
40
0.06857042132823217
40
0.06857042132823217
40
0.077768698731132638
40
0.077768698731132638
40
0.077768698731132638
40
0.086089793495484457
40
0.086089793495484457
40
0.086089793495484457
40
0.095391386191941652
40
0.095391386191941652
40
0.095391386191941652
40
0.10952589578269256
40
0.10952589578269256
40
0.10952589578269256
40
0.11740448283854849
40
0.11740448283854849
40
0.11740448283854849
40
0.12541741738255074
40
0.12541741738255074
40
0.12541741738255074
40
0.13375284100683973
40
0.13375284100683973
40
0.13375284100683973
40
0.1413855670930502
40
0.1413855670930502
40
0.1413855670930502
40
0.14874977352243274
40
0.14874977352243274
40
0.14874977352243274
40
0.15659323105303777
40
0.15659323105303777
40
0.15659323105303777
40
0.1627872705073187
40
0.1627872705073187
40
0.1627872705073187
40
0.16839571770177766
40
0.16839571770177766
40
0.16839571770177766
40
0.17520083680095527
40
0.17520083680095527
40
0.17520083680095527
40
0.18280667562549996
40
0.18280667562549996
40
0.18280667562549996
40
0.18975439863110929
40
0.18975439863110929
40
0.18975439863110929
40
0.19464743840429211
40
0.19464743840429211
40
0.19464743840429211
40
0.19967684820937134
40
0.19967684820937134
40
0.19967684820937134
40
0.20577952030744778
40
0.20577952030744778
40
0.20577952030744778
40
0.21061384242623718
40
0.21061384242623718
40
0.21061384242623718
40
0.21621938418500261
40
0.21621938418500261
40
0.21621938418500261
40
0.22249472186511887
40
0.22249472186511887
40
0.22249472186511887
40
0.22963498988472258
40
0.22963498988472258
40
0.22963498988472258
40
0.23872165049723268
40
0.23872165049723268
40
0.23872165049723268
40
0.2461484419460972
40
0.2461484419460972
40
0.2461484419460972
40
0.25220492207931478
40
0.25220492207931478
40
0.25220492207931478
40
0.2567662434334852
40
0.2567662434334852
40
0.2567662434334852
40
0.26172916741430735
40
0.26172916741430735
40
0.26172916741430735
40
0.26713297636250799
40
0.26713297636250799
40
0.26713297636250799
40
0.27145610653013397
40
0.27145610653013397
40
0.27145610653013397
40
0.27777464684342379
40
0.27777464684342379
40
0.27777464684342379
40
0.28457570569145968
40
0.28457570569145968
40
0.28457570569145968
40
0.29170844035793975
40
0.29170844035793975
40
0.29170844035793975
40
0.30009197167232965
40
0.30009197167232965
40
0.30009197167232965
40
0.30997162603559497
40
0.30997162603559497
40
0.30997162603559497
40
0.31931176987187204
40
0.31931176987187204
40
0.31931176987187204
40
0.32985974041034699
40
0.32985974041034699
40
0.32985974041034699
40
0.33889865837289485
40
0.33889865837289485
40
0.33889865837289485
40
0.34900190320721713
40
0.34900190320721713
40
0.34900190320721713
40
0.36284384352668403
40
0.36284384352668403
40
0.36284384352668403
40
0.37363295645715794
40
0.37363295645715794
40
0.37363295645715794
40
0.38137097301398476
40
0.38137097301398476
40
0.38137097301398476
40
0.38812281523068753
40
0.38812281523068753
40
0.38812281523068753
40
0.39640627978211673
40
0.39640627978211673
40
0.39640627978211673
40
0.40432386843252249
40
0.40432386843252249
40
0.40432386843252249
40
0.41189046141478158
40
0.41189046141478158
40
0.41189046141478158
40
0.42664258071446409
40
0.42664258071446409
40
0.42664258071446409
40
0.43427804771645523
40
0.43427804771645523
40
0.43427804771645523
40
0.44081863942450228
40
0.44081863942450228
40
0.44081863942450228
40
0.44677621956289809
40
0.44677621956289809
40
0.44677621956289809
40
0.45157241674168408
40
0.45157241674168408
40
0.45157241674168408
40
0.45626432914010989
40
0.45626432914010989
40
0.45626432914010989
40
0.46124705078665218
40
0.46124705078665218
40
0.46124705078665218
40
0.46528815572138033
40
0.46528815572138033
40
0.46528815572138033
40
0.46931752997458526
40
0.46931752997458526
40
0.46931752997458526
40
0.47180610103549731
40
0.47180610103549731
40
0.47180610103549731
40
0.47180610103549731
10
-21.418629056023711
20
92.659440867673638
30
0
10
-22.356289376539685
20
92.482778396105374
30
0
10
-23.483986366572722
20
92.267835010771563
30
0
10
-24.650360090703451
20
92.039773010835745
30
0
10
-25.602803525259375
20
91.85354097386795
30
0
10
-26.652491474712335
20
91.633496413377244
30
0
10
-27.86877422755169
20
91.353018656714866
30
0
10
-29.134995957624309
20
91.061024850620967
30
0
10
-30.516408860463088
20
90.724357438287001
30
0
10
-31.736511348212563
20
90.420459433266259
30
0
10
-33.17184773808718
20
90.062951871568586
30
0
10
-34.435646746043986
20
89.734817712146224
30
0
10
-35.944107890157255
20
89.306902501885162
30
0
10
-37.486427709373565
20
88.869382375957272
30
0
10
-39.269986457982135
20
88.334118733024752
30
0
10
-40.869305557662791
20
87.828589442546502
30
0
10
-42.625255874568353
20
87.273550540055069
30
0
10
-44.117430896078808
20
86.769555709121477
30
0
10
-45.765807335220472
20
86.151535340665873
30
0
10
-47.293189600825386
20
85.578878920598839
30
0
10
-49.005885564710596
20
84.880961459363135
30
0
10
-50.677789928942389
20
84.089829403594493
30
0
10
-52.258419902019497
20
83.341887675130479
30
0
10
-53.738670930215534
20
82.542228069250058
30
0
10
-55.059583581695151
20
81.785721475212227
30
0
10
-56.570390356261761
20
80.920459653398055
30
0
10
-57.947708874780453
20
80.081350689808218
30
0
10
-59.417679955070255
20
79.08734592011723
30
0
10
-60.988466429907497
20
78.025169072497562
30
0
10
-62.603570107609897
20
76.834258657510816
30
0
10
-64.206016010872403
20
75.562555055267907
30
0
10
-65.655646591875552
20
74.412125934365989
30
0
10
-67.140203363242406
20
73.138716593310448
30
0
10
-68.737739705036887
20
71.583387296103197
30
0
10
-70.523518234181893
20
69.84478918597631
30
0
10
-72.437938443517197
20
67.771514979365534
30
0
10
-74.078607297762844
20
65.810657560507707
30
0
10
-76.571734057055792
20
62.830978821887236
30
0
10
-78.328906042016939
20
60.185913068532095
30
0
10
-79.947079972988448
20
57.506624721992182
30
0
10
-80.849051428370103
20
56.013187234796462
30
0
10
-81.667527520551943
20
54.578903235282262
30
0
10
-82.410082764094298
20
53.129697934570579
30
0
10
-83.165300231341547
20
51.655780449989038
30
0
10
-83.876910914444395
20
50.093304692913833
30
0
10
-84.600715411585895
20
48.295100167111393
30
0
10
-85.353650191186176
20
46.424524986025432
30
0
10
-86.08402811499343
20
44.348033565386935
30
0
10
-86.654460810173092
20
42.405896472124738
30
0
10
-87.176804569671759
20
40.627486504868422
30
0
10
-87.57740739547485
20
38.992364019891049
30
0
10
-87.942484289596322
20
37.353117443652202
30
0
10
-88.294717761692922
20
35.771539637802377
30
0
10
-88.621105319702622
20
34.103043076826694
30
0
10
-88.870397648823172
20
32.275203006100895
30
0
10
-89.135913535010332
20
30.328409946325419
30
0
10
-89.300052147581482
20
28.253144436448679
30
0
10
-89.388755772314539
20
26.573958923020491
30
0
10
-89.458805715109563
20
25.247893054665003
30
0
10
-89.48811323463292
20
24.194830577072217
30
0
10
-89.486891590729272
20
23.109493033852235
30
0
10
-89.485785442572706
20
22.126764663417639
30
0
10
-89.459240487593121
20
21.053790196460682
30
0
10
-89.40042058134631
20
19.784676528268982
30
0
10
-89.329050297641487
20
18.244772636337654
30
0
10
-89.205194083374849
20
16.489224486956594
30
0
10
-89.020291010537505
20
14.933053988952118
30
0
10
-88.813631442987287
20
13.193777744284507
30
0
10
-88.544847078557481
20
11.732209664301198
30
0
10
-88.270481424233438
20
10.249226324250451
30
0
10
-88.019856001782358
20
8.8945621371319774
30
0
10
-87.746105803292181
20
7.4508486838603254
30
0
10
-87.420032914821348
20
6.1839044521213591
30
0
10
-87.190391115492801
20
5.2916396754026715
30
0
10
-86.94553123828004
20
4.5359614794121823
30
0
10
-86.739530816269976
20
3.8914926522627442
30
0
10
-86.527789119832889
20
3.2290623454220313
30
0
10
-86.344793741279076
20
2.6028366132175496
30
0
10
-86.074022291811588
20
1.7377138866481181
30
0
10
-85.745468955801414
20
0.68797633702247174
30
0
10
-85.253693251223538
20
-0.67322126041153263
30
0
10
-84.710375966723319
20
-1.9560701245697247
30
0
10
-84.279979130096976
20
-2.9722978588139712
30
0
10
-83.850956014301744
20
-3.9092113507745001
30
0
10
-83.51852284403067
20
-4.6524883447583045
30
0
10
-83.133056594127595
20
-5.5143403533185484
30
0
10
-82.862455051820689
20
-6.1631381148515496
30
0
10
-82.454991203975752
20
-7.0045458846898701
30
0
10
-81.998840246993211
20
-7.9464919283800164
30
0
10
-81.362225180726654
20
-9.1021550548392387
30
0
10
-80.587143697259165
20
-10.408792205811309
30
0
10
-79.705232665359532
20
-11.895523269204721
30
0
10
-78.700748722181814
20
-13.495332897227437
30
0
10
-77.789379870573441
20
-14.865039982428605
30
0
10
-76.629577545976943
20
-16.608120688587338
30
0
10
-75.601858116904438
20
-17.989591193780107
30
0
10
-74.563561114842912
20
-19.261246235130994
30
0
10
-73.71493083963756
20
-20.300606808806183
30
0
10
-72.820807424775381
20
-21.342519672573953
30
0
10
-71.97911509925251
20
-22.281599300587548
30
0
10
-71.292722747601076
20
-23.047410101891689
30
0
10
-70.670136448039329
20
-23.693880860400004
30
0
10
-69.945862117546426
20
-24.391774519769385
30
0
10
-69.400388856297624
20
-24.917379686698339
30
0
10
-68.755036909760094
20
-25.522272030935497
30
0
10
-68.023861174529884
20
-26.208279811353606
30
0
10
-67.228308897282105
20
-26.954687310433844
30
0
10
-66.383322538664558
20
-27.746452755724032
30
0
10
-65.707489022067293
20
-28.358060468681852
30
0
10
-64.971617342671294
20
-29.024000798382907
30
0
10
-64.42037290728554
20
-29.479110776665081
30
0
10
-63.838136745349566
20
-29.924288285459426
30
0
10
-63.372338871946525
20
-30.280437130961857
30
0
10
-62.831993925816398
20
-30.684807539792324
30
0
10
-62.132455522853157
20
-31.204134913578905
30
0
10
-61.110033937466362
20
-31.963166175611761
30
0
10
-59.817334746216524
20
-32.901172201307496
30
0
10
-58.618314897881902
20
-33.692779980530034
30
0
10
-57.32773129088406
20
-34.54483928918583
30
0
10
-56.159340352112501
20
-35.231428360159967
30
0
10
-55.006023171843125
20
-35.878181607958709
30
0
10
-53.796460717383532
20
-36.556475887468572
30
0
10
-52.521398020373354
20
-37.239803479125996
30
0
10
-51.064288400891449
20
-37.942587781764594
30
0
10
-49.351659977906294
20
-38.768612368957029
30
0
10
-47.4442281429681
20
-39.580493370673366
30
0
10
-45.635571131864346
20
-40.26561769643596
30
0
10
-43.504141611140724
20
-41.073009150056627
30
0
10
-41.518652086339578
20
-41.705938598958035
30
0
10
-39.239810413993339
20
-42.384784083454896
30
0
10
-37.085412272398713
20
-43.026559011470923
30
0
10
-34.658736204008214
20
-43.722797056008446
30
0
10
-32.525369008250436
20
-44.324432982251182
30
0
10
-30.116124062663886
20
-45.003869844909403
30
0
10
-28.078114105772979
20
-45.547311270075454
30
0
10
-25.834002020746155
20
-46.054921201982651
30
0
10
-23.910945356781252
20
-46.489909573892454
30
0
10
-21.901242787573132
20
-46.890454052254668
30
0
10
-20.046486366015387
20
-47.230226618664332
30
0
10
-17.97333354919888
20
-47.61000718981748
30
0
10
-16.032511204937631
20
-47.937699269460801
30
0
10
-13.85079434778909
20
-48.267390703671104
30
0
10
-10.861735384471324
20
-48.719084118115077
30
0
10
-7.4814151738237271
20
-49.092377137335305
30
0
10
-4.3193007593841495
20
-49.396902178204741
30
0
10
-1.8545878124219617
20
-49.634264497378808
30
0
10
0.5169145490270024
20
-49.844214105825635
30
0
10
2.6394966586934236
20
-49.96183180889858
30
0
10
4.1618252888287017
20
-50.046187931558464
30
0
10
5.503506789223449
20
-50.094521898086562
30
0
10
6.9341137800316694
20
-50.122124404150846
30
0
10
8.1823965415265736
20
-50.146209098770321
30
0
10
9.5700842344702188
20
-50.146593861619444
30
0
10
11.19978750966318
20
-50.109473745665348
30
0
10
13.199180990158549
20
-50.063933113230249
30
0
10
15.494628913410667
20
-49.96566822063464
30
0
10
17.433397926055452
20
-49.87422936422243
30
0
10
19.286532618063788
20
-49.786829309904526
30
0
10
20.784966313921483
20
-49.709832129504584
30
0
10
22.366830045909367
20
-49.638085843508755
30
0
10
23.878567967875838
20
-49.569520151593025
30
0
10
25.547986534739898
20
-49.501831625735264
30
0
10
27.373949469279392
20
-49.428612869829884
30
0
10
30.933916697631972
20
-49.285862780770913
30
0
10
34.860693224354677
20
-49.109090901697414
30
0
10
38.382882053185362
20
-48.833050547420989
30
0
10
40.205912089140767
20
-48.690176362805289
30
0
10
41.87188066854997
20
-48.539697244423827
30
0
10
43.414001347222346
20
-48.398444887890157
30
0
10
44.734992155132602
20
-48.277447181836912
30
0
10
46.022906947909654
20
-48.154305292973632
30
0
10
47.422546968193132
20
-48.007320752641832
30
0
10
48.697426666842681
20
-47.873438037251631
30
0
10
50.054726351840003
20
-47.722415862229667
30
0
10
51.215611650426744
20
-47.596305409694253
30
0
10
52.150191574596278
20
-47.494779188877246
30
0
10
52.915614765793897
20
-47.419753330385021
30
0
10
53.643310877618511
20
-47.312491699680351
30
0
10
54.355184531282674
20
-47.207562282431923
30
0
10
55.113876612998716
20
-47.045472783770222
30
0
10
55.864201677166882
20
-46.71723927576123
30
0
10
56.661032611271338
20
-46.368661538882407
30
0
10
57.385571724893396
20
-45.852794950629495
30
0
10
57.972410219354899
20
-45.270609616229322
30
0
10
58.448350098015879
20
-44.798443560274038
30
0
10
58.894314907837249
20
-44.250940579984068
30
0
10
59.276033012921843
20
-43.532490991649517
30
0
10
59.656643051377458
20
-42.816126947602328
30
0
10
59.899640459218858
20
-41.970523259436888
30
0
10
60.019487649942917
20
-41.280486499426885
30
0
10
60.093506153021963
20
-40.854314740732462
30
0
10
60.134194206750408
20
-40.47827335224472
30
0
10
60.167433466326116
20
-40.164765253685388
30
0
0
SPLINE
5
105
100
AcDbEntity
8
0
100
AcDbSpline
70
0
71
3
72
161
73
157
74
0
42
0.000000001
43
0.0000000001
44
0.0000000001
40
0.49525350989783701
40
0.49525350989783701
40
0.49525350989783701
40
0.49525350989783701
40
0.49823723777083845
40
0.49823723777083845
40
0.49823723777083845
40
0.50218726985036732
40
0.50218726985036732
40
0.50218726985036732
40
0.50738391042854447
40
0.50738391042854447
40
0.50738391042854447
40
0.51508103682809847
40
0.51508103682809847
40
0.51508103682809847
40
0.52380574952719394
40
0.52380574952719394
40
0.52380574952719394
40
0.53114857734785281
40
0.53114857734785281
40
0.53114857734785281
40
0.53845231789184766
40
0.53845231789184766
40
0.53845231789184766
40
0.54643477570168009
40
0.54643477570168009
40
0.54643477570168009
40
0.55709980272774184
40
0.55709980272774184
40
0.55709980272774184
40
0.56531517387252961
40
0.56531517387252961
40
0.56531517387252961
40
0.57286620591885284
40
0.57286620591885284
40
0.57286620591885284
40
0.58010261636329852
40
0.58010261636329852
40
0.58010261636329852
40
0.58693818672983744
40
0.58693818672983744
40
0.58693818672983744
40
0.59380898193607989
40
0.59380898193607989
40
0.59380898193607989
40
0.60088550648450767
40
0.60088550648450767
40
0.60088550648450767
40
0.60785984954005601
40
0.60785984954005601
40
0.60785984954005601
40
0.61366591191941655
40
0.61366591191941655
40
0.61366591191941655
40
0.61990824599491179
40
0.61990824599491179
40
0.61990824599491179
40
0.62754075118606012
40
0.62754075118606012
40
0.62754075118606012
40
0.63528276435720632
40
0.63528276435720632
40
0.63528276435720632
40
0.64209611631082997
40
0.64209611631082997
40
0.64209611631082997
40
0.6494644211113898
40
0.6494644211113898
40
0.6494644211113898
40
0.65699279046834469
40
0.65699279046834469
40
0.65699279046834469
40
0.66270664312261174
40
0.66270664312261174
40
0.66270664312261174
40
0.66847299022330986
40
0.66847299022330986
40
0.66847299022330986
40
0.67408967504887973
40
0.67408967504887973
40
0.67408967504887973
40
0.68063767528270125
40
0.68063767528270125
40
0.68063767528270125
40
0.68676248084595359
40
0.68676248084595359
40
0.68676248084595359
40
0.69417881220834132
40
0.69417881220834132
40
0.69417881220834132
40
0.70359250453326816
40
0.70359250453326816
40
0.70359250453326816
40
0.71535496661682263
40
0.71535496661682263
40
0.71535496661682263
40
0.72605686842867556
40
0.72605686842867556
40
0.72605686842867556
40
0.7346855418293593
40
0.7346855418293593
40
0.7346855418293593
40
0.74273622834488362
40
0.74273622834488362
40
0.74273622834488362
40
0.75069484665065633
40
0.75069484665065633
40
0.75069484665065633
40
0.75861438226052402
40
0.75861438226052402
40
0.75861438226052402
40
0.76633400256612438
40
0.76633400256612438
40
0.76633400256612438
40
0.77272562287055735
40
0.77272562287055735
40
0.77272562287055735
40
0.77982794715585246
40
0.77982794715585246
40
0.77982794715585246
40
0.78736953098013496
40
0.78736953098013496
40
0.78736953098013496
40
0.7937057868763292
40
0.7937057868763292
40
0.7937057868763292
40
0.80029970258668048
40
0.80029970258668048
40
0.80029970258668048
40
0.8074788950920988
40
0.8074788950920988
40
0.8074788950920988
40
0.81349517962047069
40
0.81349517962047069
40
0.81349517962047069
40
0.81933991561743857
40
0.81933991561743857
40
0.81933991561743857
40
0.82453817407183105
40
0.82453817407183105
40
0.82453817407183105
40
0.83033353557344691
40
0.83033353557344691
40
0.83033353557344691
40
0.83810514331298325
40
0.83810514331298325
40
0.83810514331298325
40
0.84410375010179561
40
0.84410375010179561
40
0.84410375010179561
40
0.84971045696973957
40
0.84971045696973957
40
0.84971045696973957
40
0.85461070990448673
40
0.85461070990448673
40
0.85461070990448673
40
0.85638659866275901
40
0.85638659866275901
40
0.85638659866275901
40
0.85638659866275901
10
60.167433466326202
20
-40.164765253685211
30
0
10
60.743162445994784
20
-40.112302882734824
30
0
10
61.429067038384446
20
-40.035145485314573
30
0
10
62.106398509647391
20
-39.958771950441168
30
0
10
63.003089211293641
20
-39.857664233646084
30
0
10
63.82679463806884
20
-39.768080110418708
30
0
10
64.505056733485944
20
-39.706852494237374
30
0
10
65.397374632864725
20
-39.626301777598393
30
0
10
66.135123236888376
20
-39.580747450657583
30
0
10
67.039094431001161
20
-39.505950806672331
30
0
10
68.378032623467519
20
-39.395163998472704
30
0
10
69.992832366497751
20
-39.223277517100428
30
0
10
71.391384564838077
20
-39.074533556646543
30
0
10
72.976647102025282
20
-38.905931892425343
30
0
10
74.314144939283338
20
-38.762233721792576
30
0
10
75.837899677591821
20
-38.590843184147104
30
0
10
77.120310809074951
20
-38.446598754396277
30
0
10
78.559192222475531
20
-38.289629348499389
30
0
10
80.047805007623737
20
-38.121142680880752
30
0
10
81.528493622248021
20
-37.95355290001369
30
0
10
82.981135690200304
20
-37.772360337487733
30
0
10
84.25901826712105
20
-37.55689861781925
30
0
10
85.655651087625159
20
-37.321414611161636
30
0
10
86.902488902420586
20
-37.051764568921691
30
0
10
88.30252882312044
20
-36.724141810648405
30
0
10
90.173063431325616
20
-36.286418786665287
30
0
10
92.284266592150757
20
-35.729251801098059
30
0
10
94.159870286941526
20
-35.10456139291955
30
0
10
95.604665544898907
20
-34.62335646570893
30
0
10
96.871561979861426
20
-34.124790648038001
30
0
10
98.151074813074814
20
-33.577099370312233
30
0
10
99.327119356528726
20
-33.073697355149122
30
0
10
100.58222352031036
20
-32.492213894297933
30
0
10
101.89035303428021
20
-31.832636520222767
30
0
10
103.14397797183935
20
-31.200541123276114
30
0
10
104.3748459869652
20
-30.539374189699394
30
0
10
105.55846606295999
20
-29.828086719919611
30
0
10
106.6765229198538
20
-29.156198967304768
30
0
10
107.80810453005819
20
-28.397310937041734
30
0
10
109.03306535803702
20
-27.520042181616986
30
0
10
110.26433861445926
20
-26.638252713270024
30
0
10
111.54124505744065
20
-25.678880471555733
30
0
10
112.63191803905777
20
-24.814909236355579
30
0
10
113.75524858480132
20
-23.925068472440138
30
0
10
114.69784970968038
20
-23.117154846205761
30
0
10
115.72448753611778
20
-22.162610550114419
30
0
10
116.73630122324298
20
-21.22184939863406
30
0
10
117.87647309178945
20
-20.097421735956097
30
0
10
118.90430110227916
20
-18.980021896911442
30
0
10
119.75995639434424
20
-18.049799062085516
30
0
10
120.49134968138318
20
-17.162964014100965
30
0
10
121.07156103184639
20
-16.43581947372024
30
0
10
121.69536987979481
20
-15.654036770460891
30
0
10
122.19718089724813
20
-15.03211886449491
30
0
10
122.80470085646695
20
-14.22741943170962
30
0
10
123.54751583342664
20
-13.243513007643305
30
0
10
124.36222971410201
20
-12.005661119416654
30
0
10
125.0463389887131
20
-10.913650811325306
30
0
10
125.74026357597505
20
-9.8059727978107603
30
0
10
126.32220777708662
20
-8.8797664646164129
30
0
10
127.04278237421181
20
-7.6246339367120495
30
0
10
127.67692342131723
20
-6.5200556478342868
30
0
10
128.41838018542822
20
-5.1288388796667288
30
0
10
129.1332851620501
20
-3.5844976223287039
30
0
10
129.90641970831194
20
-1.9143685613905834
30
0
10
130.60847741411237
20
-0.1298420158990013
30
0
10
131.13223928615645
20
1.3469045336119498
30
0
10
131.66737904144159
20
2.8557310238627895
30
0
10
132.03104195716293
20
4.0118536879191558
30
0
10
132.39138122915591
20
5.286104678979556
30
0
10
132.6648701359949
20
6.2532307672800238
30
0
10
132.94886132732225
20
7.3482728954293011
30
0
10
133.2037118899861
20
8.4350886409110046
30
0
10
133.46090382195348
20
9.5318892065103604
30
0
10
133.66290868358254
20
10.543383012842554
30
0
10
133.79689421826248
20
11.368064766181787
30
0
10
133.9274022342284
20
12.171342371399836
30
0
10
134.02074110311435
20
12.83483698992381
30
0
10
134.15360649198274
20
13.76816751386966
30
0
10
134.30850259607186
20
14.856255715153077
30
0
10
134.48778527002935
20
16.299631383028835
30
0
10
134.58277787394155
20
17.752001864968413
30
0
10
134.67163114335716
20
19.110506215921298
30
0
10
134.69811322124002
20
20.420160365080267
30
0
10
134.70446332833555
20
21.554440393941128
30
0
10
134.71215247012475
20
22.927903839416434
30
0
10
134.69160557526953
20
24.141184947656605
30
0
10
134.5951762841546
20
25.497019229538331
30
0
10
134.4727767265687
20
27.218005813006393
30
0
10
134.25375038764054
20
29.075485356800232
30
0
10
133.98784181216271
20
30.914341971967573
30
0
10
133.65558753522316
20
33.212003767831213
30
0
10
133.15399419704829
20
35.576099046473743
30
0
10
132.46561851246449
20
37.951764171313883
30
0
10
131.83931009729156
20
40.113227878765812
30
0
10
131.07901692582487
20
42.332326028949645
30
0
10
130.19104751474822
20
44.512302282789932
30
0
10
129.47510018382695
20
46.269962131135799
30
0
10
128.71500572652758
20
47.942576375702174
30
0
10
127.87580551962162
20
49.584875956110189
30
0
10
127.09281867148947
20
51.117167013202973
30
0
10
126.18941526195123
20
52.681124351454415
30
0
10
125.10738368217736
20
54.329963579542508
30
0
10
124.03772629064846
20
55.959946567780044
30
0
10
122.83691610855577
20
57.632957199910933
30
0
10
121.65079904483981
20
59.167462492281004
30
0
10
120.47050669223927
20
60.694432229935138
30
0
10
119.27775171150257
20
62.103023406407949
30
0
10
117.88701143223295
20
63.541261349930281
30
0
10
116.53137804303661
20
64.943193405045491
30
0
10
114.95943876499396
20
66.408292587242101
30
0
10
113.46293731588298
20
67.711462178517309
30
0
10
112.22387779364043
20
68.790448565149774
30
0
10
111.08457730642525
20
69.714616765789657
30
0
10
110.03631546193928
20
70.488002974814435
30
0
10
108.87149414890268
20
71.347384382445838
30
0
10
107.77349267581171
20
72.067156710191213
30
0
10
106.47728830621622
20
72.878362223812289
30
0
10
105.10091720373856
20
73.739738603423689
30
0
10
103.50925123850189
20
74.676181738684306
30
0
10
102.04963827682562
20
75.432085141928184
30
0
10
100.82330685227731
20
76.067176855731816
30
0
10
99.738197459923356
20
76.560698401001417
30
0
10
98.78008536991797
20
76.980902713803985
30
0
10
97.783012261434664
20
77.418194367603903
30
0
10
96.849868434499911
20
77.813800750875885
30
0
10
95.681224381000476
20
78.259022853864636
30
0
10
94.408851333038371
20
78.743762927203122
30
0
10
92.849912785371998
20
79.274677328407932
30
0
10
91.327990989703679
20
79.715454681520626
30
0
10
90.052594829792838
20
80.084833545228108
30
0
10
88.863241289101637
20
80.375520006484237
30
0
10
87.940461411797983
20
80.588946814939192
30
0
10
87.043993709727076
20
80.796287964482914
30
0
10
86.38148527898818
20
80.945298743778764
30
0
10
85.465434956641303
20
81.119778554102908
30
0
10
84.65070759594289
20
81.274959412504174
30
0
10
83.596627701926849
20
81.449810055368403
30
0
10
82.346366447763288
20
81.641482909952146
30
0
10
80.952492710450571
20
81.85517245465357
30
0
10
79.391692223620595
20
82.080359985924872
30
0
10
78.08127000244319
20
82.265201077600636
30
0
10
76.323987480322145
20
82.513073873499749
30
0
10
75.034117624018847
20
82.683798048539529
30
0
10
73.415477213683275
20
82.882738290519569
30
0
10
72.16611058588893
20
83.036292654829325
30
0
10
70.666050355840241
20
83.215589177782959
30
0
10
69.145502809740378
20
83.410537042591613
30
0
10
67.724295407772729
20
83.592748607875777
30
0
10
66.361913685963813
20
83.782455072065716
30
0
10
65.187243672548576
20
83.945924917741976
30
0
10
64.160583938737958
20
84.088797304311299
30
0
10
63.217975062973295
20
84.210791596069271
30
0
10
62.329382347351071
20
84.302125897977774
30
0
10
62.007349620598042
20
84.335226140386439
30
0
10
61.696770530245217
20
84.36458383754433
30
0
10
61.407229305564016
20
84.392245038306882
30
0
0
SPLINE
5
106
100
AcDbEntity
8
0
100
AcDbSpline
70
0
71
3
72
71
73
67
74
0
42
0.000000001
43
0.0000000001
44
0.0000000001
40
0.87336530079707531
40
0.87336530079707531
40
0.87336530079707531
40
0.87336530079707531
40
0.87671744667660412
40
0.87671744667660412
40
0.87671744667660412
40
0.87990689414899104
40
0.87990689414899104
40
0.87990689414899104
40
0.88313015710283249
40
0.88313015710283249
40
0.88313015710283249
40
0.88655055253463533
40
0.88655055253463533
40
0.88655055253463533
40
0.88947270795777522
40
0.88947270795777522
40
0.88947270795777522
40
0.89174287078633463
40
0.89174287078633463
40
0.89174287078633463
40
0.89447791088117856
40
0.89447791088117856
40
0.89447791088117856
40
0.90008142210101028
40
0.90008142210101028
40
0.90008142210101028
40
0.90621678512262416
40
0.90621678512262416
40
0.90621678512262416
40
0.91438735610541377
40
0.91438735610541377
40
0.91438735610541377
40
0.92177250329407989
40
0.92177250329407989
40
0.92177250329407989
40
0.93155094038231989
40
0.93155094038231989
40
0.93155094038231989
40
0.93844608381345573
40
0.93844608381345573
40
0.93844608381345573
40
0.94614032333677378
40
0.94614032333677378
40
0.94614032333677378
40
0.95406489909408576
40
0.95406489909408576
40
0.95406489909408576
40
0.96163060615593521
40
0.96163060615593521
40
0.96163060615593521
40
0.96875256590864189
40
0.96875256590864189
40
0.96875256590864189
40
0.97515929269249313
40
0.97515929269249313
40
0.97515929269249313
40
0.98156596821885989
40
0.98156596821885989
40
0.98156596821885989
40
0.98715080891872076
40
0.98715080891872076
40
0.98715080891872076
40
0.99303442756969706
40
0.99303442756969706
40
0.99303442756969706
40
1
40
1
40
1
40
1
10
61.407229305563703
20
84.392245038306854
30
0
10
61.340005424632658
20
85.071009753585997
30
0
10
61.223215724356741
20
85.830543256234535
30
0
10
61.050523641685352
20
86.478308928313439
30
0
10
60.886213272634542
20
87.094634905690498
30
0
10
60.66601759892221
20
87.610776915728209
30
0
10
60.501625233968426
20
87.937559133291558
30
0
10
60.335489931713909
20
88.267805994218165
30
0
10
60.232848284597146
20
88.456601397557989
30
0
10
59.997624137633004
20
88.802895309206633
30
0
10
59.748013848541639
20
89.17036831107653
30
0
10
59.307703220503392
20
89.671114164121178
30
0
10
58.883814570621809
20
90.023513881208871
30
0
10
58.521672665758473
20
90.324580458139124
30
0
10
58.233643578172703
20
90.516249025001642
30
0
10
57.946016859640508
20
90.700809888410561
30
0
10
57.722565540199504
20
90.844191451348621
30
0
10
57.445478893967632
20
91.015155740847689
30
0
10
57.070709841598102
20
91.18263430019995
30
0
10
56.619196685078059
20
91.384408626293492
30
0
10
56.116436433376997
20
91.523096707788184
30
0
10
55.678343204032707
20
91.611593499074516
30
0
10
54.780784030918241
20
91.79290446553054
30
0
10
54.011979417197573
20
91.863676015053159
30
0
10
53.273891021987197
20
91.966982196690296
30
0
10
52.465747686674661
20
92.080093583792973
30
0
10
51.593381215648009
20
92.215420170843998
30
0
10
50.427251934795656
20
92.368011134550599
30
0
10
48.87429703534665
20
92.571219208124248
30
0
10
46.819923138154493
20
92.803484619279999
30
0
10
44.566341320656306
20
93.048401781439964
30
0
10
42.529392684020941
20
93.269775452312132
30
0
10
40.388345092374919
20
93.497801674543012
30
0
10
38.395058833009095
20
93.701213945081818
30
0
10
35.755812276627012
20
93.970545623872511
30
0
10
33.375809216663257
20
94.191322353743786
30
0
10
30.559373938671577
20
94.371537316635283
30
0
10
28.573399592155752
20
94.498613658831943
30
0
10
26.322605006815088
20
94.609317553572851
30
0
10
23.996894662692153
20
94.719830627902923
30
0
10
21.401651702446358
20
94.843151349632095
30
0
10
18.796826427634571
20
94.968916203290675
30
0
10
16.693383797834002
20
95.090380365487434
30
0
10
14.52697210496979
20
95.215480702201617
30
0
10
12.903142448768696
20
95.334485855719677
30
0
10
11.368211446109758
20
95.391893569532982
30
0
10
9.9027906233542602
20
95.446701544004199
30
0
10
8.4791654898676931
20
95.434626888206466
30
0
10
6.7464341576214215
20
95.372036563823542
30
0
10
5.1153317755665784
20
95.313117315758561
30
0
10
3.1698903491260531
20
95.215702650882747
30
0
10
1.1651224786387584
20
95.113301744924925
30
0
10
-0.63831371831166961
20
95.021184596040257
30
0
10
-2.4205757546970146
20
94.928132695534075
30
0
10
-4.0600665642868563
20
94.822759268583752
30
0
10
-5.6995442570110102
20
94.717386684681202
30
0
10
-7.2419627434605216
20
94.592418424318097
30
0
10
-8.9516435544667097
20
94.408325752340133
30
0
10
-10.442010116310271
20
94.247848100119839
30
0
10
-12.095615171459418
20
94.039036663681927
30
0
10
-13.751074414073546
20
93.816160180279155
30
0
10
-15.495097457742137
20
93.58136024504644
30
0
10
-17.166396248343609
20
93.34246960249547
30
0
10
-18.375002547119536
20
93.162555975791065
30
0
10
-19.805862569369125
20
92.949557569138705
30
0
10
-20.565134737504373
20
92.820245812150887
30
0
10
-21.418629056023303
20
92.659440867673709
30
0
0
SPLINE
5
107
100
AcDbEntity
8
0
100
AcDbSpline
70
0
71
3
72
428
73
424
74
0
42
0.000000001
43
0.0000000001
44
0.0000000001
40
0
40
0
40
0
40
0
40
0.0075726860286370774
40
0.0075726860286370774
40
0.0075726860286370774
40
0.013609296338849044
40
0.013609296338849044
40
0.013609296338849044
40
0.020616133837659676
40
0.020616133837659676
40
0.020616133837659676
40
0.02826757029205296
40
0.02826757029205296
40
0.02826757029205296
40
0.035859229899146298
40
0.035859229899146298
40
0.035859229899146298
40
0.044670321050729739
40
0.044670321050729739
40
0.044670321050729739
40
0.056325235274972976
40
0.056325235274972976
40
0.056325235274972976
40
0.065024388105338893
40
0.065024388105338893
40
0.065024388105338893
40
0.072365920195434294
40
0.072365920195434294
40
0.072365920195434294
40
0.079985603932115859
40
0.079985603932115859
40
0.079985603932115859
40
0.087204586361480915
40
0.087204586361480915
40
0.087204586361480915
40
0.095163333512005052
40
0.095163333512005052
40
0.095163333512005052
40
0.10285228753489498
40
0.10285228753489498
40
0.10285228753489498
40
0.11029459161580192
40
0.11029459161580192
40
0.11029459161580192
40
0.1173240306949285
40
0.1173240306949285
40
0.1173240306949285
40
0.12442956802438877
40
0.12442956802438877
40
0.12442956802438877
40
0.1332107714162046
40
0.1332107714162046
40
0.1332107714162046
40
0.14387244798199991
40
0.14387244798199991
40
0.14387244798199991
40
0.1508768515062755
40
0.1508768515062755
40
0.1508768515062755
40
0.1569717591011367
40
0.1569717591011367
40
0.1569717591011367
40
0.16273640369623765
40
0.16273640369623765
40
0.16273640369623765
40
0.16787581995311951
40
0.16787581995311951
40
0.16787581995311951
40
0.17451479705440046
40
0.17451479705440046
40
0.17451479705440046
40
0.18156847343070454
40
0.18156847343070454
40
0.18156847343070454
40
0.18850627542096465
40
0.18850627542096465
40
0.18850627542096465
40
0.19564202526113222
40
0.19564202526113222
40
0.19564202526113222
40
0.20253729693321046
40
0.20253729693321046
40
0.20253729693321046
40
0.21074460161540459
40
0.21074460161540459
40
0.21074460161540459
40
0.21550704323565331
40
0.21550704323565331
40
0.21550704323565331
40
0.22008687256589399
40
0.22008687256589399
40
0.22008687256589399
40
0.22751629521121544
40
0.22751629521121544
40
0.22751629521121544
40
0.23418842779450441
40
0.23418842779450441
40
0.23418842779450441
40
0.2409522585670508
40
0.2409522585670508
40
0.2409522585670508
40
0.24675554610199091
40
0.24675554610199091
40
0.24675554610199091
40
0.25264026839806908
40
0.25264026839806908
40
0.25264026839806908
40
0.25734120255515719
40
0.25734120255515719
40
0.25734120255515719
40
0.26176964477010028
40
0.26176964477010028
40
0.26176964477010028
40
0.26576376289823406
40
0.26576376289823406
40
0.26576376289823406
40
0.27014029360276659
40
0.27014029360276659
40
0.27014029360276659
40
0.27651248262000766
40
0.27651248262000766
40
0.27651248262000766
40
0.2865848683850325
40
0.2865848683850325
40
0.2865848683850325
40
0.29487985375086989
40
0.29487985375086989
40
0.29487985375086989
40
0.3022655200876353
40
0.3022655200876353
40
0.3022655200876353
40
0.30959662761366641
40
0.30959662761366641
40
0.30959662761366641
40
0.32038418030720289
40
0.32038418030720289
40
0.32038418030720289
40
0.32960265574554315
40
0.32960265574554315
40
0.32960265574554315
40
0.33869058709617789
40
0.33869058709617789
40
0.33869058709617789
40
0.34827450001481219
40
0.34827450001481219
40
0.34827450001481219
40
0.36025046315949311
40
0.36025046315949311
40
0.36025046315949311
40
0.37042926493973394
40
0.37042926493973394
40
0.37042926493973394
40
0.37906163125021208
40
0.37906163125021208
40
0.37906163125021208
40
0.38639576129593978
40
0.38639576129593978
40
0.38639576129593978
40
0.39598332752569071
40
0.39598332752569071
40
0.39598332752569071
40
0.40276242039781651
40
0.40276242039781651
40
0.40276242039781651
40
0.40978735344843187
40
0.40978735344843187
40
0.40978735344843187
40
0.41985515802129164
40
0.41985515802129164
40
0.41985515802129164
40
0.42945670117221951
40
0.42945670117221951
40
0.42945670117221951
40
0.43697094187735319
40
0.43697094187735319
40
0.43697094187735319
40
0.44324246545569457
40
0.44324246545569457
40
0.44324246545569457
40
0.4507719697402402
40
0.4507719697402402
40
0.4507719697402402
40
0.45570062335535844
40
0.45570062335535844
40
0.45570062335535844
40
0.46081339827330325
40
0.46081339827330325
40
0.46081339827330325
40
0.46510829407886417
40
0.46510829407886417
40
0.46510829407886417
40
0.46936638295501182
40
0.46936638295501182
40
0.46936638295501182
40
0.47359310167422985
40
0.47359310167422985
40
0.47359310167422985
40
0.4764414384452329
40
0.4764414384452329
40
0.4764414384452329
40
0.47852939845828174
40
0.47852939845828174
40
0.47852939845828174
40
0.48007179939046157
40
0.48007179939046157
40
0.48007179939046157
40
0.48176222679314878
40
0.48176222679314878
40
0.48176222679314878
40
0.4835820659085886
40
0.4835820659085886
40
0.4835820659085886
40
0.48500123448488969
40
0.48500123448488969
40
0.48500123448488969
40
0.48609891644148012
40
0.48609891644148012
40
0.48609891644148012
40
0.48710818441478487
40
0.48710818441478487
40
0.48710818441478487
40
0.48870262553018645
40
0.48870262553018645
40
0.48870262553018645
40
0.49038514063751459
40
0.49038514063751459
40
0.49038514063751459
40
0.49182535225948554
40
0.49182535225948554
40
0.49182535225948554
40
0.49392248530718691
40
0.49392248530718691
40
0.49392248530718691
40
0.49966365758682751
40
0.49966365758682751
40
0.49966365758682751
40
0.50438120238047268
40
0.50438120238047268
40
0.50438120238047268
40
0.50938173836800527
40
0.50938173836800527
40
0.50938173836800527
40
0.51623532128368366
40
0.51623532128368366
40
0.51623532128368366
40
0.52509463466792583
40
0.52509463466792583
40
0.52509463466792583
40
0.53329270059297462
40
0.53329270059297462
40
0.53329270059297462
40
0.53948677288236169
40
0.53948677288236169
40
0.53948677288236169
40
0.54638178665219439
40
0.54638178665219439
40
0.54638178665219439
40
0.55581047858995958
40
0.55581047858995958
40
0.55581047858995958
40
0.56969140113402339
40
0.56969140113402339
40
0.56969140113402339
40
0.57721933236158274
40
0.57721933236158274
40
0.57721933236158274
40
0.58531348137351946
40
0.58531348137351946
40
0.58531348137351946
40
0.59194177632501022
40
0.59194177632501022
40
0.59194177632501022
40
0.59750046240829491
40
0.59750046240829491
40
0.59750046240829491
40
0.60316953338419232
40
0.60316953338419232
40
0.60316953338419232
40
0.61031001119926498
40
0.61031001119926498
40
0.61031001119926498
40
0.61820765127588873
40
0.61820765127588873
40
0.61820765127588873
40
0.6242175609857491
40
0.6242175609857491
40
0.6242175609857491
40
0.63060177339644308
40
0.63060177339644308
40
0.63060177339644308
40
0.63735615378016586
40
0.63735615378016586
40
0.63735615378016586
40
0.64597046570547278
40
0.64597046570547278
40
0.64597046570547278
40
0.65220780536133405
40
0.65220780536133405
40
0.65220780536133405
40
0.65859885220480718
40
0.65859885220480718
40
0.65859885220480718
40
0.66438426835357212
40
0.66438426835357212
40
0.66438426835357212
40
0.66925162115276893
40
0.66925162115276893
40
0.66925162115276893
40
0.67513734331469466
40
0.67513734331469466
40
0.67513734331469466
40
0.68364563958743241
40
0.68364563958743241
40
0.68364563958743241
40
0.69003305026392281
40
0.69003305026392281
40
0.69003305026392281
40
0.6964688294493091
40
0.6964688294493091
40
0.6964688294493091
40
0.70465585160716537
40
0.70465585160716537
40
0.70465585160716537
40
0.71463405210169506
40
0.71463405210169506
40
0.71463405210169506
40
0.73036336986164541
40
0.73036336986164541
40
0.73036336986164541
40
0.7387581185648181
40
0.7387581185648181
40
0.7387581185648181
40
0.74592810034371682
40
0.74592810034371682
40
0.74592810034371682
40
0.752837578449015
40
0.752837578449015
40
0.752837578449015
40
0.7605614041224833
40
0.7605614041224833
40
0.7605614041224833
40
0.76804386024365567
40
0.76804386024365567
40
0.76804386024365567
40
0.77392628146364462
40
0.77392628146364462
40
0.77392628146364462
40
0.77981023744634648
40
0.77981023744634648
40
0.77981023744634648
40
0.78751475995583187
40
0.78751475995583187
40
0.78751475995583187
40
0.79551145611334784
40
0.79551145611334784
40
0.79551145611334784
40
0.80234590029092845
40
0.80234590029092845
40
0.80234590029092845
40
0.80984839384420459
40
0.80984839384420459
40
0.80984839384420459
40
0.81571716358362922
40
0.81571716358362922
40
0.81571716358362922
40
0.82093049882777935
40
0.82093049882777935
40
0.82093049882777935
40
0.82634590689503162
40
0.82634590689503162
40
0.82634590689503162
40
0.83152347830968998
40
0.83152347830968998
40
0.83152347830968998
40
0.83771501155542871
40
0.83771501155542871
40
0.83771501155542871
40
0.84286943582885931
40
0.84286943582885931
40
0.84286943582885931
40
0.84871054711577865
40
0.84871054711577865
40
0.84871054711577865
40
0.85610846308111299
40
0.85610846308111299
40
0.85610846308111299
40
0.86010620512912617
40
0.86010620512912617
40
0.86010620512912617
40
0.86251867453175168
40
0.86251867453175168
40
0.86251867453175168
40
0.86456267021605437
40
0.86456267021605437
40
0.86456267021605437
40
0.86692585841831915
40
0.86692585841831915
40
0.86692585841831915
40
0.86883490539763042
40
0.86883490539763042
40
0.86883490539763042
40
0.87104535475573819
40
0.87104535475573819
40
0.87104535475573819
40
0.87510838556585968
40
0.87510838556585968
40
0.87510838556585968
40
0.87844653154158447
40
0.87844653154158447
40
0.87844653154158447
40
0.88130741366397469
40
0.88130741366397469
40
0.88130741366397469
40
0.88460547068298001
40
0.88460547068298001
40
0.88460547068298001
40
0.88770511792912254
40
0.88770511792912254
40
0.88770511792912254
40
0.89052415443360622
40
0.89052415443360622
40
0.89052415443360622
40
0.89062286824553982
40
0.89062286824553982
40
0.89062286824553982
40
0.89062286824553982
10
-20.349524331695143
20
86.985020773924603
30
0
10
-21.230236300572429
20
86.819087813173965
30
0
10
-22.401412341663764
20
86.595603103201157
30
0
10
-23.507338010037302
20
86.379662400128709
30
0
10
-24.38893303019071
20
86.207524024177019
30
0
10
-25.298342067462375
20
86.018296120537798
30
0
10
-26.409031946090394
20
85.76372876283925
30
0
10
-27.698236166868888
20
85.46824636191667
30
0
10
-29.180522657945254
20
85.107051501590817
30
0
10
-30.455597058084798
20
84.788800270029029
30
0
10
-31.847972826603396
20
84.441271292049919
30
0
10
-33.030815572441924
20
84.132652633889194
30
0
10
-34.486296054255405
20
83.718294874017758
30
0
10
-35.930405594804718
20
83.307174284145319
30
0
10
-37.621168755412654
20
82.799261483275501
30
0
10
-39.113939095539834
20
82.327591708299479
30
0
10
-40.846489844120711
20
81.780158657313166
30
0
10
-42.267071520083888
20
81.299129672438838
30
0
10
-43.842772279291992
20
80.705685292868196
30
0
10
-45.92703822044561
20
79.920703816480682
30
0
10
-48.281756827790218
20
78.892344209113631
30
0
10
-50.3362792361687
20
77.800270537910635
30
0
10
-51.869761514975977
20
76.985153791014923
30
0
10
-53.245468941917551
20
76.182043708993191
30
0
10
-54.563360004373934
20
75.357595390793591
30
0
10
-55.675576298873324
20
74.661813410327682
30
0
10
-56.800345068913181
20
73.899332378816283
30
0
10
-57.988090633829408
20
73.035319603193258
30
0
10
-59.220836803599298
20
72.138571620087419
30
0
10
-60.463007896085841
20
71.188253477866795
30
0
10
-61.679732524754762
20
70.176579315692777
30
0
10
-62.832472457181659
20
69.218106726362265
30
0
10
-64.013365479365348
20
68.150584513037259
30
0
10
-65.3002485407835
20
66.863205782098049
30
0
10
-66.719004854202097
20
65.443903005458807
30
0
10
-68.235283545815236
20
63.787611145533383
30
0
10
-69.538533901093601
20
62.238196444016161
30
0
10
-70.797605444959686
20
60.74130526541262
30
0
10
-71.826736324028118
20
59.383213449458168
30
0
10
-72.742807856729442
20
58.051072205754231
30
0
10
-73.629493208980179
20
56.761664025545606
30
0
10
-74.462469947571009
20
55.431887547613456
30
0
10
-75.250649482591726
20
54.111174693839736
30
0
10
-75.995104420821988
20
52.863728950465799
30
0
10
-76.659792171095788
20
51.686989715692832
30
0
10
-77.250872054467948
20
50.536092550824236
30
0
10
-77.848350762045797
20
49.372736175544304
30
0
10
-78.409986211758024
20
48.159532241482552
30
0
10
-78.998615110131738
20
46.739899885612601
30
0
10
-79.726057643927092
20
44.985482185657517
30
0
10
-80.450474629102672
20
42.989832461320852
30
0
10
-81.011798648733304
20
41.123311449982147
30
0
10
-81.693328830745912
20
38.857079540959106
30
0
10
-82.19154477920074
20
36.761679511464294
30
0
10
-82.625291266292535
20
34.592980030272443
30
0
10
-82.910249772028379
20
33.168209151563858
30
0
10
-83.151564663529243
20
31.656848373650352
30
0
10
-83.324858061115989
20
30.052622272479866
30
0
10
-83.475649951022149
20
28.656699005921666
30
0
10
-83.574695333575519
20
27.234290305570504
30
0
10
-83.634044850520695
20
26.045422084052273
30
0
10
-83.690178412310573
20
24.920974721923162
30
0
10
-83.713230793172642
20
24.041405466702031
30
0
10
-83.712660592755768
20
23.139872202417429
30
0
10
-83.712152235780081
20
22.336118451748803
30
0
10
-83.692134159331957
20
21.443518244254616
30
0
10
-83.646880377071682
20
20.378917740568721
30
0
10
-83.588422604991052
20
19.00369183694227
30
0
10
-83.484833136141759
20
17.41272470768067
30
0
10
-83.334403197364878
20
16.035737512994462
30
0
10
-83.174576752831015
20
14.572737731935222
30
0
10
-82.962823877341151
20
13.331025372445083
30
0
10
-82.721640198737504
20
12.003339940385235
30
0
10
-82.484418569027412
20
10.697465082853059
30
0
10
-82.228397356589667
20
9.3091446617601257
30
0
10
-81.968727695850149
20
8.197510183234078
30
0
10
-81.701649197109532
20
7.054158792750016
30
0
10
-81.42379862587525
20
6.2389373447280221
30
0
10
-81.10859474280916
20
5.2375813153803925
30
0
10
-80.804013380721571
20
4.2699714611280895
30
0
10
-80.526849616667349
20
3.2588665021901546
30
0
10
-80.095997013269638
20
2.0715087056898023
30
0
10
-79.583161731735942
20
0.65822034431623133
30
0
10
-78.794335663704459
20
-1.0710843479569077
30
0
10
-78.219848504972703
20
-2.3567265150231544
30
0
10
-77.886491616080988
20
-3.1027443615966521
30
0
10
-77.640001979981747
20
-3.6786037337047017
30
0
10
-77.378464633343285
20
-4.2353395032015264
30
0
10
-77.126955742190589
20
-4.7707276527369968
30
0
10
-76.820879374596458
20
-5.3665153706880027
30
0
10
-76.386196323090516
20
-6.140462046374136
30
0
10
-75.68105124594284
20
-7.3959623159249333
30
0
10
-74.682422603221127
20
-9.0377905287952611
30
0
10
-73.756446783465123
20
-10.480506713848417
30
0
10
-72.924856802213711
20
-11.776165088162781
30
0
10
-72.16263571436609
20
-12.894873614352383
30
0
10
-71.474034223794348
20
-13.830017537031329
30
0
10
-70.77596896597619
20
-14.778013573083971
30
0
10
-70.116514514867148
20
-15.591402839512011
30
0
10
-69.378240709356177
20
-16.46714731021952
30
0
10
-68.744810436339193
20
-17.218525802904121
30
0
10
-68.071510656241273
20
-17.996091200470264
30
0
10
-67.495773484077304
20
-18.631197532839291
30
0
10
-66.911957267266459
20
-19.275216008913482
30
0
10
-66.462781220583281
20
-19.732952770410058
30
0
10
-65.794395211590256
20
-20.372872829012113
30
0
10
-65.260463708673115
20
-20.884064676296568
30
0
10
-64.553623767426103
20
-21.546981208309532
30
0
10
-63.796706023580668
20
-22.256340781012113
30
0
10
-63.083663386080516
20
-22.924581979964778
30
0
10
-62.36007923380032
20
-23.600037680846938
30
0
10
-61.818075382769706
20
-24.09016437465921
30
0
10
-61.329229124459097
20
-24.532221382026759
30
0
10
-61.011735800894826
20
-24.802926594203313
30
0
10
-60.687232659231228
20
-25.060346288556676
30
0
10
-60.331660310680903
20
-25.342412356746628
30
0
10
-59.887590226275371
20
-25.674329153123558
30
0
10
-59.276552708748163
20
-26.131149443674182
30
0
10
-58.386887624420829
20
-26.796275644042179
30
0
10
-57.192056076232952
20
-27.682047903848304
30
0
10
-56.08558255876585
20
-28.438126921229557
30
0
10
-54.336603035942794
20
-29.633245193976926
30
0
10
-52.855814620445187
20
-30.484590378252506
30
0
10
-51.215815469919157
20
-31.37478740671822
30
0
10
-49.865214999389451
20
-32.107897862979307
30
0
10
-48.371105744157106
20
-32.860807046644197
30
0
10
-46.725962827079115
20
-33.584532959510732
30
0
10
-45.261164985256244
20
-34.228922054362812
30
0
10
-43.747895134487898
20
-34.824658309019107
30
0
10
-42.308994215135257
20
-35.336025389691052
30
0
10
-40.880722630949506
20
-35.843614939873802
30
0
10
-39.471325899446285
20
-36.288387653871553
30
0
10
-37.842671740740904
20
-36.775796906573333
30
0
10
-35.446145364037619
20
-37.493008184428412
30
0
10
-32.591373154773642
20
-38.311530546574808
30
0
10
-30.246727254576516
20
-38.966688316032176
30
0
10
-28.243116124544883
20
-39.52655170465777
30
0
10
-26.568985427213988
20
-39.965471057541613
30
0
10
-24.715429658424707
20
-40.38768291330161
30
0
10
-22.888122345626481
20
-40.803915769399751
30
0
10
-20.937651028457729
20
-41.195187179983925
30
0
10
-19.130031117861364
20
-41.527720246679955
30
0
10
-17.223758816196685
20
-41.878401587770696
30
0
10
-15.412714265573747
20
-42.184914788703409
30
0
10
-13.439509041953137
20
-42.489040270064812
30
0
10
-10.973811238185981
20
-42.869072474767016
30
0
10
-8.267865172213769
20
-43.19980830671448
30
0
10
-5.5342770076444179
20
-43.475263924280767
30
0
10
-3.2109021158035054
20
-43.709383560137063
30
0
10
-0.92122354957859653
20
-43.928079610004033
30
0
10
1.1077894285053573
20
-44.076927419638722
30
0
10
2.8285404219607422
20
-44.203161218569093
30
0
10
4.3688367849406307
20
-44.273938394690262
30
0
10
5.8518750489152609
20
-44.319003063320608
30
0
10
7.1118766637190358
20
-44.35729037971975
30
0
10
8.3511444909931392
20
-44.377548578509064
30
0
10
9.915592537282242
20
-44.357481687061615
30
0
10
11.960722520427092
20
-44.331249175560153
30
0
10
14.608857789030644
20
-44.225551664298479
30
0
10
16.864936976461649
20
-44.120292008418645
30
0
10
18.460145809648733
20
-44.045865927200751
30
0
10
19.822226456165474
20
-43.976363111685757
30
0
10
21.168758504553935
20
-43.913034135184937
30
0
10
22.564121817738734
20
-43.84740856721087
30
0
10
24.020204682538253
20
-43.784977984200459
30
0
10
25.6486516949882
20
-43.719047782283852
30
0
10
27.982465577693784
20
-43.62455970907903
30
0
10
30.558430650553863
20
-43.528984586961776
30
0
10
33.034914489866622
20
-43.397682687138996
30
0
10
35.396707100525411
20
-43.272461657288481
30
0
10
37.725814185443539
20
-43.100607755485484
30
0
10
39.850168853562366
20
-42.918545310132863
30
0
10
41.512704975974792
20
-42.776061855521448
30
0
10
43.00242853316221
20
-42.640940125164732
30
0
10
44.483613158590423
20
-42.499094608089798
30
0
10
45.719837105462844
20
-42.380707729132126
30
0
10
47.018724431683971
20
-42.245487801233224
30
0
10
48.373369334897163
20
-42.097946384491479
30
0
10
49.999737230253004
20
-41.920810204482308
30
0
10
51.626863511418279
20
-41.754308578270766
30
0
10
52.535200534765437
20
-41.636571366780373
30
0
10
53.129778661648849
20
-41.559503088296609
30
0
10
53.375687336734138
20
-41.495530737428162
30
0
10
53.507632775162726
20
-41.444446895965214
30
0
10
53.644507341893409
20
-41.391454698959748
30
0
10
53.72135835166776
20
-41.345182092625379
30
0
10
53.867960872298639
20
-41.20775946078119
30
0
10
53.991111717201335
20
-41.09232001848828
30
0
10
54.113269459235099
20
-40.938551638689937
30
0
10
54.169861748167023
20
-40.836080566402543
30
0
10
54.225969045499994
20
-40.73448766338754
30
0
10
54.274011623764558
20
-40.621736512443121
30
0
10
54.332414130000693
20
-40.280724122814078
30
0
10
54.390386373778952
20
-39.942224036823774
30
0
10
54.437303621047626
20
-39.417828409682137
30
0
10
54.490195561276131
20
-38.944850782492935
30
0
10
54.525838826951123
20
-38.626116639797488
30
0
10
54.569556443895564
20
-38.31870383178056
30
0
10
54.591805596673801
20
-38.164009451526432
30
0
10
54.608115234564266
20
-38.050611456070918
30
0
10
54.606490807374719
20
-38.064910949862082
30
0
10
54.619179149174393
20
-37.934509948906438
30
0
10
54.628552178397811
20
-37.838181176241164
30
0
10
54.646340633247917
20
-37.592802023352775
30
0
10
54.732105142223013
20
-37.26234955247795
30
0
10
54.826100596404061
20
-36.900183075268259
30
0
10
54.999720440321902
20
-36.537226222876257
30
0
10
55.113793752773461
20
-36.341592251739058
30
0
10
55.23660001803934
20
-36.13098140124152
30
0
10
55.248758577417917
20
-36.106918750890408
30
0
10
55.418700105114318
20
-35.883429085622808
30
0
10
55.551225927792352
20
-35.709144717633947
30
0
10
55.754107674254705
20
-35.479791137136722
30
0
10
56.012688603939097
20
-35.271490612358669
30
0
10
56.212692765229605
20
-35.110376752162345
30
0
10
56.491690451236494
20
-34.923509115373747
30
0
10
56.843764013605153
20
-34.783330847819336
30
0
10
57.167479429179366
20
-34.654443390804495
30
0
10
57.478131479093541
20
-34.602994982896632
30
0
10
57.605434830158742
20
-34.585613726988242
30
0
10
57.806548610081961
20
-34.55815482628924
30
0
10
57.719135403026499
20
-34.572271634959385
30
0
10
57.750356614992555
20
-34.566963687837308
30
0
10
57.783302429230886
20
-34.561362539487874
30
0
10
57.931556677051205
20
-34.528072977843017
30
0
10
58.175450169412059
20
-34.499405993546148
30
0
10
58.384219909838926
20
-34.474867418069842
30
0
10
58.598859995932735
20
-34.470095995658944
30
0
10
58.703059025878048
20
-34.469179688752433
30
0
10
58.854786192846532
20
-34.467845428240878
30
0
10
58.910331269701643
20
-34.468526968030538
30
0
10
59.120097992395173
20
-34.455611507636917
30
0
10
59.694361458816246
20
-34.420253768521633
30
0
10
61.151921770794559
20
-34.252054383463452
30
0
10
62.426760877576164
20
-34.113000265683901
30
0
10
63.474301396828679
20
-33.998738927160389
30
0
10
64.364421191447647
20
-33.919982423148035
30
0
10
65.130960636298553
20
-33.86173618408953
30
0
10
65.943482455911933
20
-33.799995929933843
30
0
10
66.693246925666188
20
-33.744645808673951
30
0
10
67.586734931887491
20
-33.660678988911286
30
0
10
68.811322486115557
20
-33.54559661317316
30
0
10
70.197836640927775
20
-33.394727481004722
30
0
10
71.398202985021697
20
-33.266959707285423
30
0
10
72.94986169391359
20
-33.101800145970884
30
0
10
74.273995546317096
20
-32.955896335902651
30
0
10
75.879651023775935
20
-32.775478546890191
30
0
10
77.365462495411691
20
-32.608526903548793
30
0
10
79.096072876894382
20
-32.426099504307864
30
0
10
80.650197874306173
20
-32.237412427377535
30
0
10
81.824421486158258
20
-32.094849363690955
30
0
10
82.840057622551882
20
-31.948537093410945
30
0
10
83.770037348690522
20
-31.780819743726369
30
0
10
84.805256622507855
20
-31.594122950165143
30
0
10
85.825224751643958
20
-31.373244712441462
30
0
10
86.960650272069856
20
-31.107901071809763
30
0
10
88.513305249672939
20
-30.745052855884868
30
0
10
90.22223189714839
20
-30.299948390967685
30
0
10
91.727982506738797
20
-29.823331826773533
30
0
10
93.944748917218774
20
-29.121656806053224
30
0
10
95.682191423242102
20
-28.403473274155292
30
0
10
97.799042279615804
20
-27.404856505645864
30
0
10
98.947057306368919
20
-26.863284550888331
30
0
10
100.2038179547215
20
-26.224810270339525
30
0
10
101.33226891823878
20
-25.599813025408167
30
0
10
102.54559698610606
20
-24.927806244314816
30
0
10
103.59006678894718
20
-24.280491931113154
30
0
10
104.87556055107046
20
-23.387121163685947
30
0
10
105.92825080931611
20
-22.655540247790466
30
0
10
107.13490729052563
20
-21.766548533339687
30
0
10
108.19223592865482
20
-20.954459226934553
30
0
10
109.07894329898772
20
-20.273416883626751
30
0
10
109.82334813193616
20
-19.674765066972924
30
0
10
110.51398239505855
20
-19.080163867029402
30
0
10
111.21833133604314
20
-18.473755022505884
30
0
10
111.93181425972647
20
-17.818091141164977
30
0
10
112.72023615520942
20
-17.05159171372647
30
0
10
113.71329287959136
20
-16.086147431910234
30
0
10
114.74278619962752
20
-15.005353096701015
30
0
10
115.53612869640544
20
-14.077472843030064
30
0
10
116.41359567541016
20
-13.051201987285523
30
0
10
117.10663710812722
20
-12.15067006442586
30
0
10
117.77250720852385
20
-11.2988185589733
30
0
10
118.27921796554156
20
-10.650580530358667
30
0
10
118.76055347238848
20
-9.9963504262457938
30
0
10
119.28383072329285
20
-9.205063439229443
30
0
10
119.83969816236211
20
-8.3644943713377717
30
0
10
120.40363857604771
20
-7.451191205293358
30
0
10
120.91452014353153
20
-6.6216577225176776
30
0
10
121.45502353155136
20
-5.7440264152767204
30
0
10
121.96889575577282
20
-4.8988816482074213
30
0
10
122.5715351677327
20
-3.7896546858594182
30
0
10
123.34012141520203
20
-2.3749835381323381
30
0
10
124.21729200547547
20
-0.53201476452739593
30
0
10
124.92015432040276
20
1.2295720464157429
30
0
10
125.42907378228423
20
2.5050790594435219
30
0
10
125.84416544979909
20
3.6897006419387104
30
0
10
126.17161753167059
20
4.6878954493156204
30
0
10
126.50713903758489
20
5.7106888395813904
30
0
10
126.76395354570002
20
6.5731018986879262
30
0
10
127.04522675783497
20
7.6204459415387662
30
0
10
127.29984585601331
20
8.5685411890348924
30
0
10
127.57157349212346
20
9.6698415499936647
30
0
10
127.77306917725429
20
10.598227004874058
30
0
10
127.94259035979827
20
11.379290877610398
30
0
10
128.05028187102491
20
11.983533814811427
30
0
10
128.14257500222107
20
12.579265351877023
30
0
10
128.25417811588159
20
13.299638510536006
30
0
10
128.3746046682565
20
14.110856741569695
30
0
10
128.50814323206532
20
15.092205502885442
30
0
10
128.70118422745432
20
16.510825984526843
30
0
10
128.85440825708233
20
18.258015085679126
30
0
10
128.90180310365145
20
19.879505226346453
30
0
10
128.93738371101188
20
21.096802215581381
30
0
10
128.94067166554615
20
22.198815216843727
30
0
10
128.92112959605149
20
23.180854362292873
30
0
10
128.90143954472035
20
24.170329974809594
30
0
10
128.84564487342399
20
25.118280918583306
30
0
10
128.73953732614316
20
26.226387825254474
30
0
10
128.60455680308911
20
27.636022235768497
30
0
10
128.41232257703234
20
29.204012075287238
30
0
10
128.18795044800248
20
30.657659617055053
30
0
10
127.91448959182341
20
32.429340008346124
30
0
10
127.54712047412745
20
34.12429135720793
30
0
10
127.03285535593298
20
35.948214761600454
30
0
10
126.22218418718128
20
38.823389580269271
30
0
10
125.10804545015995
20
41.879916943737342
30
0
10
123.82252189242291
20
44.698411539732341
30
0
10
123.13643700406949
20
46.202644222657234
30
0
10
122.44597650082241
20
47.583879300441438
30
0
10
121.60413101107501
20
49.028613536817296
30
0
10
120.88510807953023
20
50.262565679571864
30
0
10
120.00951465862576
20
51.605543104176135
30
0
10
119.04347931852391
20
52.976326716407698
30
0
10
118.11254249926698
20
54.29730627366262
30
0
10
117.14494416841535
20
55.588125095922607
30
0
10
116.20782606859603
20
56.739915307220457
30
0
10
115.16025970712133
20
58.027454925827868
30
0
10
114.0931935516184
20
59.200582328251052
30
0
10
112.7840815553682
20
60.485627051486041
30
0
10
111.51587930900084
20
61.730514127119932
30
0
10
110.04617953608818
20
63.055692499830592
30
0
10
108.77143180455276
20
64.126655824340091
30
0
10
107.76927382531667
20
64.968606286047248
30
0
10
106.92398652551857
20
65.623780383568985
30
0
10
106.1054729340121
20
66.20551738534229
30
0
10
105.2867457868806
20
66.787406166157865
30
0
10
104.42473559282554
20
67.350906308561861
30
0
10
103.42306015989287
20
67.977970321128836
30
0
10
102.11145433841551
20
68.79905545737283
30
0
10
100.624913321788
20
69.670482223449909
30
0
10
99.320299279192312
20
70.342820029382096
30
0
10
97.966211197987775
20
71.040654469171372
30
0
10
96.811176854745028
20
71.547848936781563
30
0
10
95.706117230693309
20
72.019457505365025
30
0
10
94.761668652841408
20
72.422521767425664
30
0
10
93.797176436270263
20
72.814742130375464
30
0
10
92.601043835420796
20
73.240442415257206
30
0
10
91.287992343073498
20
73.70775381029793
30
0
10
89.742229159302582
20
74.182403107657763
30
0
10
88.408360052034965
20
74.530228768958708
30
0
10
87.364950871141062
20
74.802312803572363
30
0
10
86.481949502194936
20
75.002627390353453
30
0
10
85.744966879016516
20
75.16552668378155
30
0
10
85.090291767479599
20
75.310233098478804
30
0
10
84.530827469459254
20
75.427272047387589
30
0
10
83.663833863323802
20
75.578905473113707
30
0
10
82.763234928277285
20
75.736416325281468
30
0
10
81.50036438218126
20
75.932826874522405
30
0
10
80.157219760691191
20
76.131578975863448
30
0
10
78.873064049502545
20
76.32160218108217
30
0
10
77.582766932084994
20
76.505546232426951
30
0
10
76.504933201165812
20
76.655384724307709
30
0
10
75.21601937576277
20
76.83456718837661
30
0
10
74.194768780306006
20
76.968450731768684
30
0
10
72.949168366205569
20
77.12227800465142
30
0
10
71.912211484183956
20
77.250338534699964
30
0
10
70.684309909506538
20
77.397042020661175
30
0
10
69.365306184282687
20
77.56228581391133
30
0
10
67.870581043667528
20
77.74954385373205
30
0
10
66.316546004920667
20
77.95793312899788
30
0
10
65.030771334004896
20
78.13750908812564
30
0
10
63.402305020224546
20
78.364946606393175
30
0
10
62.220659968771663
20
78.51425892532221
30
0
10
60.996278637225387
20
78.630980410830219
30
0
10
60.33463814889582
20
78.694055254165633
30
0
10
59.687125034626185
20
78.740881644208798
30
0
10
58.985528089487389
20
78.888780433766883
30
0
10
58.562143803359149
20
78.978031140843285
30
0
10
58.069725242324317
20
79.121932252900976
30
0
10
57.587572926139472
20
79.402483810371962
30
0
10
57.179063184052872
20
79.640184720514512
30
0
10
56.845592654821473
20
79.947302529555927
30
0
10
56.622947928570198
20
80.206908383717504
30
0
10
56.365534767469043
20
80.507054561375796
30
0
10
56.187789528370331
20
80.76701161479707
30
0
10
56.008332363623836
20
81.19305335604146
30
0
10
55.863362040080951
20
81.537221331492432
30
0
10
55.76906821159146
20
82.015107529387365
30
0
10
55.747703199873641
20
82.283891686528094
30
0
10
55.722965057256182
20
82.595111773859628
30
0
10
55.729362036428292
20
82.720449681956978
30
0
10
55.720567521241406
20
82.946536805846009
30
0
10
55.704402307578711
20
83.362107941535456
30
0
10
55.651598348315552
20
84.039352712161431
30
0
10
55.56897110817772
20
84.527034702298209
30
0
10
55.501085383938502
20
84.927709407681476
30
0
10
55.431368305601218
20
85.137635010151428
30
0
10
55.39326688221923
20
85.232674062756871
30
0
10
55.360612923469724
20
85.314125122268663
30
0
10
55.324045855535502
20
85.382829091015509
30
0
10
55.279543908494226
20
85.461448875504814
30
0
10
55.228241564489828
20
85.552082645431341
30
0
10
55.213692276162341
20
85.567598194035099
30
0
10
55.222317451403462
20
85.557604288781164
30
0
10
55.230423739599679
20
85.548211612814654
30
0
10
55.213766692096954
20
85.572266219453496
30
0
10
55.083455530023251
20
85.666926600515509
30
0
10
54.964941423850476
20
85.753017387160426
30
0
10
54.774821148752665
20
85.875685269104451
30
0
10
54.72272877618223
20
85.905669802340313
30
0
10
54.720904664766536
20
85.906719766599409
30
0
10
54.719208943359035
20
85.907688043091099
30
0
10
54.717717197893343
20
85.908534017529888
30
0
0
SPLINE
5
108
100
AcDbEntity
8
0
100
AcDbSpline
70
0
71
3
72
56
73
52
74
0
42
0.000000001
43
0.0000000001
44
0.0000000001
40
0.89307175183485654
40
0.89307175183485654
40
0.89307175183485654
40
0.89307175183485654
40
0.89357385857858962
40
0.89357385857858962
40
0.89357385857858962
40
0.89893748905758963
40
0.89893748905758963
40
0.89893748905758963
40
0.90469019341127677
40
0.90469019341127677
40
0.90469019341127677
40
0.91145900262674684
40
0.91145900262674684
40
0.91145900262674684
40
0.92022099893538967
40
0.92022099893538967
40
0.92022099893538967
40
0.927235331471158
40
0.927235331471158
40
0.927235331471158
40
0.93397506817655529
40
0.93397506817655529
40
0.93397506817655529
40
0.94267821858811907
40
0.94267821858811907
40
0.94267821858811907
40
0.94927312441709533
40
0.94927312441709533
40
0.94927312441709533
40
0.95656147162241723
40
0.95656147162241723
40
0.95656147162241723
40
0.96326172148459066
40
0.96326172148459066
40
0.96326172148459066
40
0.97244629111344305
40
0.97244629111344305
40
0.97244629111344305
40
0.97874542540605602
40
0.97874542540605602
40
0.97874542540605602
40
0.98447418714605994
40
0.98447418714605994
40
0.98447418714605994
40
0.99223709357303003
40
0.99223709357303003
40
0.99223709357303003
40
0.9969287112828249
40
0.9969287112828249
40
0.9969287112828249
40
1
40
1
40
1
40
1
10
54.717717197894224
20
85.90853401753256
30
0
10
54.710725784191396
20
85.910638354607244
30
0
10
54.696778798802228
20
85.914640093750705
30
0
10
54.678944829112552
20
85.919250112943516
30
0
10
54.488437880972555
20
85.968495497037594
30
0
10
53.706537531835103
20
86.080942802652487
30
0
10
52.955323692458968
20
86.18229453323346
30
0
10
52.149617344631885
20
86.290998245028987
30
0
10
51.385644209857858
20
86.409054812074473
30
0
10
50.459247316833391
20
86.537392004160765
30
0
10
49.369220185043147
20
86.688397499154519
30
0
10
47.957620938774184
20
86.860897170642986
30
0
10
46.259799438811612
20
87.052131806530525
30
0
10
44.062026500935509
20
87.299678623170252
30
0
10
41.467300337778383
20
87.57709059269898
30
0
10
39.067624943673927
20
87.826938259964635
30
0
10
37.146587705214195
20
88.026951425886523
30
0
10
35.376269568358431
20
88.205798627612765
30
0
10
33.601452351991675
20
88.356278227411281
30
0
10
31.8961153612629
20
88.500866878862254
30
0
10
30.121029916696756
20
88.621873973730345
30
0
10
28.066830874342443
20
88.734531490692191
30
0
10
25.41420451483156
20
88.880008288669643
30
0
10
22.290547747378952
20
89.015022360265604
30
0
10
19.490772576024568
20
89.156834399181548
30
0
10
17.369212827631067
20
89.264293996894949
30
0
10
15.488961334477576
20
89.376264833553748
30
0
10
13.986358836454652
20
89.468702093183026
30
0
10
12.325760641245081
20
89.570858948846734
30
0
10
11.121763912117906
20
89.640601730507427
30
0
10
9.8670764054832034
20
89.652169633372964
30
0
10
8.7136297382797849
20
89.662804121192607
30
0
10
7.438802397330404
20
89.625671769575547
30
0
10
5.8317547478872722
20
89.556840664468893
30
0
10
3.6288457016855045
20
89.462488350676523
30
0
10
0.85578439589136801
20
89.321172862243387
30
0
10
-1.5968176313994278
20
89.184628996466927
30
0
10
-3.2789072839953692
20
89.090981914228422
30
0
10
-4.7729243991790335
20
88.997992717571179
30
0
10
-6.2688160293067945
20
88.868386309690777
30
0
10
-7.6292580106624905
20
88.750515472805233
30
0
10
-9.0574401421076391
20
88.595172339418355
30
0
10
-10.66653025491059
20
88.394549127624657
30
0
10
-12.846969334969716
20
88.122689467384788
30
0
10
-15.319441154085787
20
87.775187941476815
30
0
10
-17.023165087596695
20
87.525331286632763
30
0
10
-18.052833737381128
20
87.374327030971017
30
0
10
-18.773180444808357
20
87.262839061808336
30
0
10
-19.321982335444346
20
87.169952036481732
30
0
10
-19.681246273585714
20
87.109145105801517
30
0
10
-19.992329972535906
20
87.052318959566705
30
0
10
-20.349524331695523
20
86.985020773924532
30
0
0
ENDSEC
0
SECTION
2
OBJECTS
0
DICTIONARY
5
C
100
AcDbDictionary
3
ACAD_GROUP
350
D
3
ACAD_MLINESTYLE
350
17
0
DICTIONARY
5
D
100
AcDbDictionary
0
DICTIONARY
5
1A
330
C
100
AcDbDictionary
0
DICTIONARY
5
17
100
AcDbDictionary
0
ENDSEC
0
EOF
